<svg width="1920" height="1080" viewBox="0 0 1920 1080" fill="none" xmlns="http://www.w3.org/2000/svg">
<g clip-path="url(#clip0_58_2048)">
<g opacity="0.3">
<path d="M946.839 1117.85C945.932 1117.77 945.018 1117.87 944.15 1118.14C943.282 1118.42 942.476 1118.86 941.779 1119.44C941.082 1120.03 940.507 1120.75 940.087 1121.55C939.667 1122.36 939.411 1123.25 939.332 1124.15C939.281 1124.66 939.281 1125.17 939.332 1125.67L814.872 1150.82C814.439 1149.05 813.455 1147.45 812.062 1146.27C810.668 1145.08 808.936 1144.37 807.113 1144.23C805.289 1144.09 803.468 1144.52 801.908 1145.48C800.349 1146.43 799.131 1147.86 798.429 1149.55L614.489 1082.03C614.749 1081.25 614.917 1080.45 614.99 1079.64C615.24 1076.83 614.388 1074.03 612.613 1071.83C610.838 1069.63 608.28 1068.21 605.477 1067.86L619.291 902.221L724.269 771.059C726.151 772.431 728.46 773.088 730.782 772.913C733.105 772.737 735.289 771.741 736.943 770.102C738.598 768.462 739.614 766.288 739.811 763.967C740.008 761.646 739.372 759.331 738.017 757.437C736.662 755.543 734.677 754.192 732.418 753.629C730.158 753.065 727.771 753.324 725.685 754.359C723.599 755.395 721.95 757.14 721.033 759.281C720.117 761.422 719.993 763.819 720.683 766.044L627.892 799.644L632.603 742.975C634.597 743.03 636.554 742.422 638.166 741.247C639.779 740.072 640.957 738.396 641.516 736.48C642.075 734.565 641.983 732.518 641.256 730.66C640.528 728.802 639.205 727.238 637.494 726.211C635.784 725.185 633.781 724.754 631.799 724.986C629.817 725.219 627.968 726.101 626.541 727.496C625.114 728.89 624.189 730.718 623.911 732.694C623.633 734.67 624.018 736.682 625.005 738.416L429.864 860.81H429.652C429.113 860.085 428.429 859.48 427.645 859.033C426.86 858.586 425.991 858.306 425.093 858.211C424.613 858.158 424.129 858.158 423.649 858.211L331.709 621.934L422.996 251.911C423.336 251.985 423.681 252.035 424.029 252.063C426.261 252.266 428.494 251.68 430.338 250.407C432.183 249.133 433.522 247.253 434.123 245.094C434.723 242.934 434.547 240.633 433.625 238.59C432.703 236.547 431.093 234.892 429.077 233.914C427.06 232.936 424.764 232.696 422.589 233.237C420.414 233.778 418.497 235.065 417.173 236.873C415.85 238.682 415.202 240.898 415.344 243.135C415.486 245.372 416.408 247.488 417.95 249.114L154.06 524.523L127.998 161.977C129.481 161.79 130.879 161.178 132.023 160.216C133.168 159.254 134.01 157.982 134.449 156.553C134.888 155.124 134.905 153.598 134.498 152.16C134.091 150.721 133.278 149.43 132.156 148.443C131.033 147.455 129.65 146.812 128.171 146.592C126.693 146.371 125.182 146.582 123.82 147.199C122.458 147.817 121.304 148.814 120.495 150.071C119.686 151.328 119.257 152.792 119.26 154.287C119.269 154.685 119.31 155.081 119.382 155.473L85.2652 162.721L90.736 52.0746C91.7545 52.0415 92.7418 51.7148 93.5791 51.1338C94.4163 50.5528 95.0678 49.7423 95.4553 48.7997C95.8428 47.8571 95.9497 46.8227 95.7631 45.8208C95.5766 44.819 95.1045 43.8923 94.4037 43.1524C93.703 42.4125 92.8034 41.8908 91.8131 41.6502C90.8228 41.4095 89.7841 41.46 88.8219 41.7957C87.8597 42.1314 87.015 42.738 86.3894 43.5425C85.7638 44.3469 85.384 45.315 85.2956 46.3303C85.2807 46.5428 85.2807 46.756 85.2956 46.9685L-95.8485 67.3472C-96.074 65.9328 -96.6769 64.6053 -97.5935 63.5047C-98.5102 62.4041 -99.7067 61.5711 -101.057 61.0935C-102.407 60.6159 -103.862 60.5113 -105.266 60.7909C-106.671 61.0704 -107.975 61.7237 -109.039 62.6819L-141.363 29.8875L-179.202 -131.82C-176.727 -132.468 -174.484 -133.798 -172.727 -135.657C-170.969 -137.517 -169.769 -139.832 -169.262 -142.339C-168.754 -144.847 -168.961 -147.446 -169.857 -149.843C-170.753 -152.239 -172.304 -154.336 -174.332 -155.895C-176.361 -157.454 -178.786 -158.413 -181.332 -158.663C-183.878 -158.912 -186.443 -158.443 -188.736 -157.308C-191.029 -156.172 -192.957 -154.417 -194.302 -152.24C-195.647 -150.064 -196.354 -147.554 -196.344 -144.996C-196.367 -144.575 -196.367 -144.154 -196.344 -143.734L-238.727 -138.461L-195.143 -223H-196.086L-239.685 -138.309L-268.802 -134.677L-282.387 -223H-283.238L-269.561 -134.571L-407 -117.474V-116.623L-269.516 -133.735L-265.671 -108.858L-342.809 -74.8326C-343.538 -76.3031 -344.674 -77.533 -346.082 -78.3758C-347.49 -79.2185 -349.111 -79.6385 -350.751 -79.5856C-352.391 -79.5327 -353.982 -79.0093 -355.333 -78.0776C-356.684 -77.146 -357.738 -75.8455 -358.371 -74.3311L-407 -92.0504V-91.1387L-358.659 -73.5257C-358.91 -72.703 -359.038 -71.8479 -359.039 -70.9879C-359.037 -69.3291 -358.556 -67.7064 -357.652 -66.3151C-356.749 -64.9238 -355.463 -63.8234 -353.948 -63.1464L-407 74.3681V76.7236L-353.158 -62.8273C-352.29 -62.5408 -351.383 -62.3921 -350.468 -62.3866C-348.474 -62.3831 -346.543 -63.0826 -345.013 -64.3621L-293.663 -7.92178L-348.842 145.397C-349.339 145.256 -349.848 145.164 -350.362 145.124C-351.347 145.038 -352.338 145.154 -353.276 145.465C-354.214 145.776 -355.079 146.275 -355.818 146.932L-407 94.686V95.9169L-356.365 147.586C-357.456 148.773 -358.121 150.29 -358.253 151.898C-358.385 153.505 -357.977 155.111 -357.094 156.46L-407 192.796V193.844L-356.608 157.129C-355.383 158.627 -353.616 159.58 -351.691 159.78C-349.766 159.979 -347.841 159.408 -346.335 158.193L-317.628 189.939L-280.002 231.562C-282.341 233.813 -283.783 236.838 -284.059 240.072C-284.187 241.54 -284.074 243.018 -283.725 244.449L-407 278.626V279.493L-283.497 245.27C-282.948 247.058 -282.026 248.711 -280.792 250.117L-281.202 250.512L-407 284.203V285.085L-359.814 272.411C-362.027 273.179 -363.946 274.615 -365.307 276.52C-366.668 278.426 -367.404 280.707 -367.413 283.049C-367.406 283.583 -367.361 284.116 -367.276 284.644L-407 291.939V292.805L-367.185 285.556C-366.84 287.215 -366.123 288.774 -365.088 290.115L-407 325.204V326.313L-364.541 290.647C-362.7 292.691 -360.175 293.99 -357.442 294.298C-354.709 294.606 -351.958 293.902 -349.709 292.318L-339.968 305.16L-407 367.618V368.773L-339.451 305.844L-287.083 374.912L-283.421 379.745L-283.558 381.264L-298.466 548.64L-398.232 533.277L-407 519.007V520.633L-399.326 533.094L-406.924 531.924V532.775L-398.672 534.036L-316.276 668.071L-325.804 673.055L-407 649.288V650.2L-347.08 667.691L-407 651.659V652.54L-327.476 673.815L-384.494 703.646C-385.155 702.508 -386.067 701.535 -387.161 700.803C-388.255 700.07 -389.502 699.597 -390.807 699.42C-392.111 699.243 -393.439 699.365 -394.689 699.779C-395.939 700.193 -397.078 700.887 -398.019 701.807L-407 693.449V694.619L-398.596 702.476C-399.463 703.499 -400.081 704.709 -400.401 706.012C-400.721 707.314 -400.734 708.673 -400.439 709.981C-400.145 711.289 -399.55 712.511 -398.703 713.55C-397.856 714.59 -396.779 715.418 -395.557 715.971L-407 745.665V748.066L-394.706 716.305C-393.827 716.59 -392.91 716.739 -391.986 716.746C-390.639 716.747 -389.311 716.43 -388.111 715.819L-358.781 768.05L-396.226 836.997L-407 838.517V839.246L-396.727 837.878L-407 856.844V858.622L-395.694 837.726L-332.947 829.323C-332.687 830.726 -332.076 832.041 -331.169 833.145C-330.263 834.248 -329.092 835.102 -327.765 835.629L-407 896.522V897.586L-326.777 836.009L-326.351 836.115L-340.636 932.067L-407 927.387V928.238L-340.758 932.964L-353.037 1015.48L-407 961.29V962.506L-353.189 1016.48L-368.552 1119.72C-368.821 1119.7 -369.09 1119.7 -369.358 1119.72C-369.935 1119.71 -370.511 1119.78 -371.075 1119.9L-407 984.131V987.444L-371.911 1120.08C-373.768 1120.68 -375.356 1121.91 -376.395 1123.56C-377.435 1125.21 -377.859 1127.17 -377.594 1129.11L-395.405 1132.39L-407 1082.06V1085.86L-396.241 1132.54L-407 1134.52V1135.37L-396.043 1133.36L-385.147 1180.64L-407 1174.62V1175.52L-384.919 1181.6L-372.412 1235.88H-371.546L-383.992 1181.87L-272.966 1212.48C-273.352 1213.97 -273.352 1215.54 -272.966 1217.03L-333.874 1235.88H-331.017L-272.677 1217.78C-271.852 1220.06 -270.189 1221.94 -268.027 1223.04L-286.764 1235.88H-285.244L-267.008 1223.43L-270.944 1235.88H-270.048L-266.203 1223.72C-264.175 1224.26 -262.025 1224.11 -260.097 1223.28C-258.168 1222.45 -256.573 1221 -255.565 1219.16L-222.133 1235.88H-220.081L-255.033 1218.42C-254.517 1217.24 -254.243 1215.98 -254.228 1214.69L-253.255 1214.04L-172.713 1206.44L-151.696 1235.88H-150.648L-171.847 1206.38L-37.1591 1193.74L-42.797 1235.88H-41.9308L-36.2017 1193.65L74.9162 1183.22L35.4049 1235.88H36.4687L75.98 1183.12L136.28 1177.45C136.441 1178.57 136.832 1179.65 137.429 1180.61C138.025 1181.58 138.813 1182.41 139.745 1183.06L107.255 1235.88H108.242L140.505 1183.5C140.918 1183.73 141.35 1183.92 141.797 1184.07L127.071 1235.88H127.922L142.587 1184.3C143.007 1184.39 143.434 1184.45 143.863 1184.48L142.997 1235.88H143.848L144.745 1184.5C146.722 1184.43 148.609 1183.65 150.06 1182.31C151.511 1180.96 152.429 1179.14 152.647 1177.17L258.765 1183.62L280.709 1206.81L289.827 1216.43C288.574 1217.73 287.704 1219.35 287.315 1221.11C286.927 1222.87 287.033 1224.71 287.624 1226.41L263.522 1235.88H265.862L287.913 1227.2C288.278 1228.02 288.748 1228.78 289.311 1229.48L282.244 1235.88H283.505L289.888 1230.1C291.048 1231.3 292.499 1232.17 294.098 1232.64L293.307 1235.88H294.189L294.933 1232.84C295.268 1232.84 295.632 1232.96 295.982 1232.99C298.121 1233.18 300.26 1232.64 302.061 1231.47L305.1 1235.85H306.133L302.76 1230.99C303.365 1230.55 303.916 1230.04 304.401 1229.47L313.017 1235.88H314.431L304.918 1228.75C305.965 1227.21 306.551 1225.4 306.608 1223.54C306.664 1221.68 306.189 1219.84 305.237 1218.24L349.55 1189.13L394.745 1191.88V1192.07C394.742 1193.77 395.176 1195.44 396.006 1196.93L333.077 1235.88H334.597L396.417 1197.66C397.229 1198.84 398.288 1199.84 399.52 1200.57C400.753 1201.31 402.131 1201.77 403.558 1201.92C404.986 1202.08 406.429 1201.92 407.791 1201.46C409.152 1201.01 410.398 1200.26 411.444 1199.28C412.49 1198.29 413.31 1197.1 413.85 1195.76C414.389 1194.43 414.634 1193 414.567 1191.57C414.501 1190.13 414.125 1188.73 413.466 1187.46C412.807 1186.18 411.879 1185.06 410.747 1184.18L457.218 1118.44L464.817 1113.47C465.407 1114.27 466.16 1114.93 467.028 1115.42C467.895 1115.9 468.857 1116.2 469.847 1116.28H470.227L470.895 1142.48L473.22 1235.88H474.072L471.032 1116.27C472.666 1116.12 474.196 1115.4 475.354 1114.24C476.513 1113.08 477.226 1111.55 477.369 1109.91C477.408 1109.33 477.377 1108.75 477.278 1108.18L575.144 1085.77L593.7 1081.51C594.094 1082.99 594.797 1084.36 595.76 1085.55C596.724 1086.74 597.927 1087.71 599.292 1088.4L532.047 1235.8H532.974L600.052 1088.68C601.063 1089.11 602.135 1089.37 603.228 1089.46C605.541 1089.66 607.858 1089.12 609.84 1087.91C611.822 1086.7 613.366 1084.89 614.245 1082.74L798.125 1150.32C797.942 1150.92 797.82 1151.53 797.76 1152.15C797.607 1153.89 797.978 1155.63 798.824 1157.16L672.388 1235.88H673.999L799.31 1157.95C800.038 1159.01 800.989 1159.89 802.098 1160.54C803.206 1161.19 804.444 1161.59 805.723 1161.7C806.677 1161.79 807.638 1161.71 808.565 1161.48L830.813 1235.94H831.694L809.386 1161.29C810.962 1160.73 812.345 1159.73 813.369 1158.41C814.393 1157.09 815.015 1155.5 815.16 1153.83C815.219 1153.14 815.194 1152.44 815.084 1151.75L939.56 1126.63C939.878 1127.82 940.511 1128.91 941.394 1129.78C942.276 1130.64 943.375 1131.26 944.575 1131.55L925.534 1235.88H926.4L945.411 1131.64H945.624C947.46 1131.81 949.284 1131.23 950.696 1130.05C952.108 1128.86 952.992 1127.17 953.154 1125.33C953.315 1123.49 952.74 1121.67 951.556 1120.26C950.372 1118.85 948.675 1117.96 946.839 1117.8V1117.85ZM-383.308 708.008C-383.306 706.762 -383.581 705.532 -384.114 704.406L-326.26 674.21L-319.817 675.943C-320.324 678.102 -320.128 680.368 -319.255 682.408C-318.383 684.447 -316.881 686.154 -314.969 687.279L-358.371 767.123L-387.366 715.363C-386.124 714.579 -385.101 713.493 -384.392 712.207C-383.682 710.921 -383.31 709.476 -383.308 708.008ZM-341.913 -71.0335C-341.915 -72.0722 -342.106 -73.102 -342.475 -74.0728L-265.534 -107.977L-264.926 -103.965C-267.379 -103.485 -269.61 -102.226 -271.289 -100.376C-272.968 -98.5252 -274.004 -96.182 -274.243 -93.695C-274.482 -91.2079 -273.911 -88.7102 -272.616 -86.5737C-271.321 -84.4372 -269.37 -82.7763 -267.054 -81.8383L-293.329 -8.89437L-344.375 -64.9548C-342.786 -66.5782 -341.902 -68.7623 -341.913 -71.0335ZM-266.264 -81.6711C-265.445 -81.4044 -264.599 -81.2311 -263.741 -81.1545H-263.437L-265.869 21.2254L-292.691 -8.25611L-266.264 -81.6711ZM-104.419 76.678C-102.789 76.8139 -101.156 76.448 -99.7389 75.6294L-28.1019 186.778L-93.2195 200.607C-93.6945 198.815 -94.7472 197.231 -96.2145 196.099C-97.6817 194.967 -99.4814 194.351 -101.335 194.346C-101.845 194.349 -102.354 194.4 -102.854 194.498L-126.622 92.9536L-108.978 74.7176C-107.708 75.8418 -106.11 76.5289 -104.419 76.678ZM-165.373 133.042L-107.307 196.868C-108.286 197.862 -109.004 199.083 -109.397 200.423C-109.789 201.762 -109.844 203.177 -109.556 204.543L-257.511 244.16C-257.373 243.596 -257.281 243.022 -257.237 242.443C-257.064 240.517 -257.309 238.577 -257.954 236.754C-258.599 234.932 -259.63 233.27 -260.975 231.881L-230.476 200.333L-165.373 133.042ZM220.622 628.453L255.483 668.177L135.186 646.249L152.115 571.785L196.611 601.038L220.622 628.453ZM137.45 1101.08L143.316 1168.09C142.12 1168.25 140.974 1168.68 139.958 1169.33L113.561 1132.98L137.45 1101.08ZM-216.768 1153.36L-258.301 1206.85C-259.888 1205.72 -261.79 1205.11 -263.741 1205.11C-264.106 1205.11 -264.455 1205.11 -264.805 1205.11L-283.527 1086.39L-216.768 1153.36ZM-4.28871 565.478L-19.3182 606.737C-20.1568 606.464 -21.0233 606.286 -21.9016 606.205C-23.9409 606.027 -25.9911 606.39 -27.8454 607.257C-29.6997 608.124 -31.2925 609.465 -32.4633 611.144L-93.098 571.633L-41.794 568.062L-4.28871 565.478ZM150.292 1070.92C149.623 1071.93 149.216 1073.09 149.106 1074.29C149 1075.48 149.182 1076.67 149.637 1077.77C150.092 1078.88 150.807 1079.85 151.72 1080.61L138.043 1098.77L134.609 1059.43L150.292 1070.92ZM163.315 1072.06C162.829 1070.88 162.045 1069.85 161.04 1069.06C160.034 1068.27 158.843 1067.76 157.58 1067.58C156.318 1067.39 155.03 1067.53 153.84 1067.99C152.65 1068.46 151.6 1069.22 150.793 1070.2L134.563 1058.28L129.229 997.291L176.263 1011.48L200 1018.66L183.603 1064.81L163.315 1072.06ZM-257.131 244.935L-120.087 208.235L-128.901 211.016L-246.645 248.096L-257.131 244.935ZM-109.146 205.698C-108.626 207.118 -107.731 208.371 -106.556 209.323C-105.382 210.276 -103.971 210.892 -102.474 211.108L-109.723 289.978L-245.14 248.583L-109.146 205.698ZM-265.519 253.734C-263.747 252.998 -262.152 251.892 -260.842 250.49C-259.531 249.088 -258.536 247.422 -257.921 245.604L-248.104 248.643L-265.413 254.099L-265.519 253.734ZM-108.994 291.103L-94.6328 295.495L-94.5264 296.923L-92.5661 322.605C-94.2565 322.908 -95.7945 323.775 -96.9294 325.063C-98.0643 326.352 -98.7291 327.987 -98.8155 329.703C-98.9019 331.418 -98.4047 333.112 -97.405 334.508C-96.4054 335.904 -94.9622 336.921 -93.3107 337.392L-121.47 493.735L-128.126 498.704L-122.503 437.629L-108.994 291.103ZM67.2875 344.99C67.1722 345.439 67.096 345.896 67.0596 346.358C66.88 348.347 67.3896 350.338 68.5032 351.996L-5.61081 407.296L-85.7428 334.717C-84.6926 333.443 -84.0959 331.856 -84.0463 330.205C-83.9968 328.554 -84.4974 326.934 -85.4692 325.599L-60.7747 305.844L67.2875 344.99ZM-121.683 494.966L-131.029 546.954L-132.472 546.011L-128.233 499.844L-121.683 494.966ZM-142.958 584.9C-141.238 586.098 -139.253 586.862 -137.173 587.127C-135.093 587.391 -132.979 587.149 -131.014 586.419L-110.939 635.945L-194.125 653.467L-142.958 584.9ZM90.4624 638.939L48.9755 693.434L-14.592 626.067C-13.0594 624.5 -12.0052 622.529 -11.5527 620.384L89.0187 638.62L90.4624 638.939ZM-48.9669 786.696L-18.5736 782.137L-30.0014 797.121L-34.8796 803.549C-36.3244 802.558 -38.0359 802.028 -39.7881 802.029C-40.7573 802.03 -41.7189 802.2 -42.6299 802.531L-48.3286 788.459L-48.9669 786.696ZM-16.5676 780.936L-14.7288 778.52L-14.6224 780.648L-16.5676 780.936ZM-13.7258 781.377L63.7771 769.691L97.3465 764.63C97.4064 764.948 97.4824 765.263 97.5744 765.573L-12.6469 801.406L-13.7258 781.377ZM97.8176 766.393C98.3908 767.941 99.293 769.346 100.462 770.512L-7.89031 890.033L-12.6013 802.273L97.8176 766.393ZM-13.9994 776.165L-14.7896 761.454L-21.856 629.532C-19.3963 629.305 -17.0717 628.305 -15.2151 626.675L48.4741 694.133L-13.9994 776.165ZM-31.6427 807.576C-32.1579 806.203 -33.0158 804.984 -34.1349 804.035L-17.297 781.924L-14.5617 781.499L-13.4675 801.68L-25.7768 805.677L-31.6427 807.576ZM109.686 773.612C110.656 773.495 111.607 773.249 112.513 772.882L130.354 812.15L114.534 828.973L109.686 773.612ZM113.288 772.518C115.327 771.488 117.002 769.861 118.09 767.852L139.472 790.617C137.945 792.212 137.092 794.335 137.092 796.543C137.092 798.752 137.945 800.875 139.472 802.47L130.931 811.588L113.288 772.518ZM103.608 752.473C101.692 753.37 100.072 754.794 98.9366 756.579C97.8009 758.363 97.1967 760.434 97.1945 762.549C97.1967 762.96 97.222 763.371 97.2705 763.779L-13.6651 780.496L-13.817 777.456L-3.05779 763.308L49.1731 694.726L58.4734 704.588L103.608 752.473ZM-34.1805 620.703C-33.9563 621.658 -33.6143 622.582 -33.1624 623.454L-99.207 662.615L-109.738 636.599L-34.1805 620.703ZM-32.6609 624.183C-31.7051 625.689 -30.4158 626.954 -28.8927 627.882C-27.3696 628.809 -25.6535 629.374 -23.8772 629.532H-22.6463L-14.7288 777.168L-17.6922 781.073L-49.2252 785.83L-98.8271 663.36L-32.6609 624.183ZM-69.452 738.158L-50.1674 786.058L-67.7347 788.702L-107.808 682.72C-106.172 682.043 -104.697 681.029 -103.478 679.744C-102.259 678.459 -101.324 676.933 -100.734 675.263C-100.143 673.594 -99.9106 671.819 -100.051 670.053C-100.191 668.288 -100.701 666.572 -101.547 665.016L-99.5565 663.846L-69.452 738.158ZM-67.3548 789.462L-49.8787 786.818L-43.3593 802.774C-44.8595 803.466 -46.1294 804.575 -47.0184 805.967C-47.9073 807.36 -48.3779 808.978 -48.3742 810.631L-59.1486 811.284L-67.3548 789.462ZM-8.55897 892.13L-5.5956 947.431C-6.23646 947.492 -6.86852 947.625 -7.48002 947.826L-22.6767 907.677L-8.55897 892.13ZM-3.89358 947.416C-4.17705 947.401 -4.46112 947.401 -4.74459 947.416L-7.78392 891.264L101.146 771.104C103.145 772.801 105.681 773.733 108.303 773.733H108.85L113.759 829.854L1.15167 949.619C-0.279854 948.365 -2.07349 947.598 -3.96959 947.431L-3.89358 947.416ZM208.297 998.081C209.218 998.363 210.176 998.506 211.139 998.507C213.473 998.506 215.727 997.652 217.476 996.106L252.778 1033.17C252.778 1033.32 252.671 1033.47 252.626 1033.63L201.185 1018.11L208.297 998.081ZM257.58 1027.68C255.661 1028.72 254.098 1030.31 253.097 1032.24L218.023 995.437C219.745 993.638 220.704 991.241 220.698 988.751C220.696 987.305 220.374 985.878 219.756 984.572L233.174 977.384L257.58 1027.68ZM219.345 983.918C218.496 982.476 217.286 981.28 215.834 980.448C214.381 979.616 212.737 979.178 211.063 979.177C209.828 979.172 208.605 979.41 207.461 979.876L131.326 812.318L140.11 802.972C141.315 804.014 142.789 804.697 144.364 804.941C145.939 805.186 147.55 804.982 149.015 804.354L232.779 976.7L219.345 983.918ZM146.401 787.881C145.267 787.783 144.125 787.912 143.042 788.262C141.959 788.611 140.957 789.174 140.095 789.918L118.455 766.986L118.637 766.53L165.321 782.517L152.48 791.27C151.758 790.316 150.845 789.524 149.797 788.945C148.75 788.367 147.593 788.014 146.401 787.912V787.881ZM118.911 765.709C119.223 764.674 119.382 763.599 119.382 762.518C119.382 762.29 119.382 762.077 119.382 761.849L208.875 752.883L166.248 781.909L118.911 765.709ZM-113.705 683.617C-111.963 683.776 -110.207 683.564 -108.553 682.994L-68.5402 788.793L-313.373 825.706L-122.367 679.073C-121.305 680.377 -119.99 681.452 -118.501 682.233C-117.012 683.014 -115.381 683.485 -113.705 683.617ZM-48.359 811.588C-48.2256 812.768 -47.85 813.909 -47.2557 814.937C-46.6614 815.966 -45.8611 816.86 -44.9051 817.565C-43.9491 818.27 -42.8579 818.771 -41.6997 819.035C-40.5415 819.298 -39.3413 819.32 -38.1742 819.099C-37.0071 818.878 -35.8982 818.418 -34.917 817.749C-33.9358 817.079 -33.1033 816.214 -32.4716 815.208C-31.84 814.202 -31.4228 813.077 -31.2462 811.902C-31.0696 810.727 -31.1373 809.529 -31.4451 808.382L-13.4067 802.546L-8.69573 890.915L-23.0718 906.78L-58.8295 812.226L-48.359 811.588ZM110.264 751.607C109.587 751.48 108.901 751.413 108.212 751.409C106.893 751.411 105.585 751.653 104.352 752.124L49.5379 694.057L91.4502 639.121L134.183 646.902L110.264 751.607ZM146.295 567.013L149.046 563.396C150.158 564.185 151.404 564.767 152.723 565.114L151.507 570.448L146.295 567.013ZM125.445 561.877C126.743 561.995 128.05 561.778 129.239 561.246C130.429 560.713 131.461 559.884 132.238 558.837L145.034 567.256L91.0095 638.21L-11.4159 619.563C-11.4159 619.35 -11.34 619.138 -11.3248 618.925C-11.1738 617.153 -11.4284 615.371 -12.0694 613.713L119.306 557.682C119.888 558.855 120.763 559.858 121.847 560.593C122.931 561.327 124.186 561.77 125.491 561.877H125.445ZM-32.9344 611.858C-33.8458 613.369 -34.397 615.07 -34.5453 616.828C-34.6364 617.842 -34.5956 618.864 -34.4237 619.867L-110.088 635.808L-130.193 586.131C-127.889 585.102 -125.932 583.428 -124.559 581.311C-123.186 579.194 -122.456 576.725 -122.458 574.201C-122.458 574.034 -122.458 573.882 -122.458 573.715L-94.5264 571.785L-32.9344 611.858ZM-122.595 572.849C-122.873 570.102 -124.014 567.513 -125.854 565.455C-127.694 563.396 -130.138 561.973 -132.837 561.39L-130.421 548.382L-95.7118 570.979L-122.595 572.849ZM-133.688 561.254H-133.947L-132.64 547.03L-131.272 547.911L-133.688 561.254ZM-133.354 545.495L-155.663 530.967C-154.923 529.714 -154.472 528.312 -154.34 526.864C-154.135 524.62 -154.715 522.375 -155.982 520.511L-129.22 500.543L-133.354 545.495ZM-156.149 531.696L-133.46 546.452L-134.813 561.132H-135.588C-138.312 561.116 -140.971 561.962 -143.186 563.548L-164.203 535.83C-162.611 535.858 -161.037 535.496 -159.617 534.775C-158.197 534.055 -156.975 532.997 -156.058 531.696H-156.149ZM-314.832 826.83L-68.3426 789.659L-60.0908 811.482L-234.214 821.998L-314.832 826.83ZM-38.4508 933.465C-36.6808 933.459 -34.952 932.931 -33.4815 931.946L-16.6132 955.166L-59.4374 952.127L-43.648 931.794C-42.1348 932.884 -40.316 933.469 -38.4508 933.465ZM-32.7976 931.474C-31.8108 930.673 -31.0025 929.674 -30.4246 928.542C-29.8466 927.41 -29.5119 926.169 -29.4417 924.9C-29.3716 923.63 -29.5677 922.36 -30.0174 921.171C-30.4671 919.982 -31.1605 918.9 -32.053 917.995L-23.3757 908.436L-8.34624 948.176C-9.79226 948.804 -11.0476 949.802 -11.9864 951.069C-12.9253 952.336 -13.5146 953.828 -13.6954 955.394L-15.5038 955.272L-32.7976 931.474ZM-13.7562 956.26C-13.7704 956.768 -13.7399 957.277 -13.6651 957.78L-14.8504 956.154L-13.7562 956.26ZM1.78995 950.182L106.86 838.41L113.88 830.964L128.332 996.151L4.03907 958.631C4.15208 958.176 4.23333 957.714 4.28222 957.248C4.39803 955.96 4.23536 954.663 3.80533 953.444C3.3753 952.224 2.68797 951.112 1.78995 950.182ZM114.655 830.128L130.764 813.017L206.747 980.271C205.101 981.116 203.732 982.415 202.801 984.014C201.871 985.612 201.418 987.445 201.496 989.293C201.574 991.141 202.181 992.929 203.243 994.443C204.306 995.958 205.78 997.136 207.492 997.838L200.365 1017.91L129.229 996.44L114.655 830.128ZM263.902 1026.51H263.643C261.851 1026.35 260.047 1026.65 258.401 1027.38L233.98 977.125L274.737 955.288L263.902 1026.51ZM307.182 685.988L285.359 700.85L257.702 669.393L305.449 678.161C305.449 678.374 305.449 678.572 305.373 678.785C305.159 681.302 305.773 683.821 307.121 685.957L307.182 685.988ZM284.645 701.336L210.379 751.926L209.3 752.032L119.336 761.059C119.036 758.893 118.105 756.864 116.659 755.224C115.213 753.583 113.317 752.405 111.206 751.835L135.049 647.084L256.41 669.18L284.645 701.336ZM134.411 646.097L113.44 642.282L92.0733 638.392L145.869 567.727L151.416 571.375L149.897 577.757L134.411 646.097ZM148.453 562.91L145.672 566.572L132.755 558.108C133.144 557.433 133.421 556.699 133.575 555.935L144.213 555.19C144.543 558.202 146.044 560.964 148.392 562.88L148.453 562.91ZM-120.391 493.005L-92.4293 337.529C-92.1323 337.575 -91.833 337.606 -91.5327 337.62C-90.5504 337.622 -89.5775 337.429 -88.6698 337.054C-87.7622 336.678 -86.9378 336.127 -86.2442 335.431L-6.26426 407.813L-120.391 493.005ZM-160.009 587.513L-146.788 580.629C-145.966 582.085 -144.872 583.37 -143.566 584.413L-195.311 653.786L-299.423 675.669C-299.866 673.905 -300.761 672.286 -302.022 670.974L-284.089 652.206L-160.009 587.513ZM-194.824 654.561L-110.665 636.781L-100.028 663.056L-102.125 664.302C-103.529 662.074 -105.599 660.344 -108.041 659.357C-110.483 658.371 -113.173 658.177 -115.731 658.804C-118.289 659.431 -120.586 660.847 -122.295 662.851C-124.004 664.855 -125.039 667.345 -125.254 669.97C-125.254 670.35 -125.254 670.715 -125.254 671.095L-209.565 674.134L-194.824 654.561ZM-316.61 830.128C-316.409 829.421 -316.307 828.69 -316.306 827.955L-316.033 827.757L-221.966 822.074L-59.7261 812.287L-39.8793 864.746L-23.7252 907.494L-32.6913 917.387C-33.793 916.477 -35.0951 915.842 -36.4904 915.533C-37.8857 915.225 -39.3343 915.252 -40.7171 915.612C-42.0999 915.973 -43.3773 916.656 -44.4443 917.607C-45.5113 918.558 -46.3373 919.748 -46.8545 921.08L-118.431 896.993L-316.61 830.128ZM200.866 1018.93L252.337 1034.48C251.835 1036.4 251.882 1038.43 252.474 1040.33L184.636 1064.46L200.866 1018.93ZM273.354 1038.02C273.483 1036.49 273.278 1034.94 272.753 1033.5C272.228 1032.05 271.397 1030.74 270.315 1029.64L406.431 884.593L418.725 877.997C419.62 879.541 420.865 880.854 422.358 881.83C423.852 882.807 425.553 883.42 427.327 883.62L414.516 1055.18L273.354 1038.02ZM417.206 873.119C417.324 874.55 417.705 875.946 418.33 877.238L408.3 882.632L413.832 876.721L417.206 873.119ZM366.342 926.08L269.661 1029.05C268.25 1027.81 266.535 1026.97 264.692 1026.61L275.618 954.741L404.03 885.885L366.342 926.08ZM233.539 976.305L149.79 803.975C150.802 803.416 151.69 802.658 152.402 801.746C153.113 800.835 153.633 799.79 153.929 798.672C154.226 797.555 154.294 796.389 154.128 795.245C153.963 794.101 153.567 793.002 152.966 792.015L166.339 782.897L294.219 826.678L274.828 954.163L233.539 976.305ZM167.236 782.289L210.622 752.731L306.939 743.066L294.356 825.812L167.236 782.289ZM212.112 751.728L285.147 701.959L309.051 729.177L307.06 742.185L212.112 751.728ZM309.781 730.012L312.273 732.854C311.124 733.941 310.209 735.251 309.584 736.704C308.96 738.157 308.639 739.722 308.641 741.304C308.641 741.547 308.641 741.79 308.641 742.033L307.896 742.109L309.781 730.012ZM-12.3885 612.892C-13.6289 610.228 -15.826 608.129 -18.5432 607.011L-3.34653 565.418L118.804 556.923L-12.3885 612.892ZM-61.7776 305.54L-86.0163 325.037C-86.716 324.247 -87.5744 323.615 -88.5355 323.18C-89.4966 322.745 -90.5386 322.518 -91.5935 322.514H-91.7455L-93.797 295.738L-85.1653 298.382L-61.7776 305.54ZM-108.887 290.221L-101.623 211.199H-101.274H-101.061L-94.6784 294.568L-108.887 290.221ZM-271.415 254.722C-269.685 254.829 -267.951 254.597 -266.309 254.038L-266.218 254.312L-271.522 255.999L-271.415 254.722ZM-148.429 572.606C-148.493 573.11 -148.528 573.617 -148.535 574.125C-148.535 576.078 -148.093 578.005 -147.244 579.763L-282.235 650.276L-200.326 564.612L-148.429 572.606ZM-286.46 653.452L-302.645 670.366C-304.207 668.98 -306.15 668.096 -308.222 667.828L-307.933 664.652L-286.46 653.452ZM-299.104 677.432C-299.104 677.128 -299.104 676.809 -299.21 676.505L-196.116 654.789L-210.598 674.21L-243.94 675.426L-299.104 677.432ZM-125.163 671.946C-125 674.263 -124.206 676.491 -122.868 678.389L-315.106 825.964L-316.458 826.177C-316.844 824.293 -317.856 822.595 -319.331 821.36L-210.188 675.122L-125.163 671.946ZM-6.38586 965.378L-6.65939 967.46L-8.77174 964.573C-8.01807 964.952 -7.21492 965.223 -6.38586 965.378ZM161.887 1080.07C163.039 1078.86 163.746 1077.3 163.893 1075.65C163.975 1074.72 163.877 1073.79 163.604 1072.91L183.238 1065.93L173.755 1092.6L161.887 1080.07ZM272.822 1040.31C272.954 1039.85 273.056 1039.39 273.126 1038.91L414.333 1056.09L411.917 1088.61L272.822 1040.31ZM436.414 880.566L436.84 880.14L457.781 905.078L436.414 880.566ZM312.896 732.277L309.856 728.903L314.947 695.47L318.64 729.83C316.542 730.105 314.56 730.951 312.911 732.277H312.896ZM309.203 728.052L285.846 701.473L307.577 686.672C309.268 689.005 311.764 690.629 314.583 691.231L314.674 692.097L309.203 728.052ZM152.313 570.949L153.604 565.311C154.31 565.451 155.028 565.522 155.747 565.524C158.418 565.526 161.006 564.602 163.072 562.91L194.453 598.653L152.313 570.949ZM-3.95438 564.597L-28.5274 566.314L-94.2833 570.873L-130.254 547.47L-120.68 494.282L-5.68682 408.466L38.3835 448.358L-3.95438 564.597ZM67.4699 344.154L-60.03 305.19L11.2271 247.899L70.5852 340.021C69.1757 341.061 68.1115 342.501 67.5307 344.154H67.4699ZM-265.094 254.859L-246.645 249.038L-109.875 290.844L-129.038 499.388L-156.392 519.812C-157.215 518.798 -158.234 517.959 -159.388 517.345C-160.542 516.732 -161.807 516.356 -163.109 516.241C-164.423 516.121 -165.748 516.276 -166.999 516.697L-219.261 377.161L-265.094 254.859ZM-170.434 533.353C-168.97 534.652 -167.148 535.479 -165.206 535.723L-143.718 564.035C-146.105 565.992 -147.721 568.733 -148.277 571.77L-199.581 563.867L-193.669 557.682L-170.434 533.353ZM-316.884 830.933L-47.1281 921.901C-47.361 922.706 -47.4786 923.54 -47.4776 924.378C-47.4806 925.682 -47.201 926.971 -46.6579 928.157C-46.1149 929.343 -45.3213 930.397 -44.3319 931.247L-60.5163 952.036L-307.462 934.438L-322.963 836.1C-321.602 835.806 -320.335 835.181 -319.275 834.279C-318.215 833.378 -317.393 832.229 -316.884 830.933ZM-61.109 952.856L-216.236 1152.68L-283.755 1084.95L-307.325 935.304L-61.109 952.856ZM-189.338 1166.2C-191.194 1164.7 -193.528 1163.92 -195.914 1164C-198.3 1164.07 -200.578 1165.01 -202.331 1166.63L-215.629 1153.28L-143.217 1060.01L-60.0756 952.932L-16.0053 956.078L-12.966 960.242C-12.5034 961.247 -11.8594 962.159 -11.0664 962.932L-40.4871 996.486L-189.338 1166.2ZM2.74735 961.427C3.15442 960.81 3.48604 960.147 3.73512 959.451L128.348 997.063L133.651 1057.61L29.1439 980.864L2.74735 961.427ZM146.827 1168.34C146.058 1168.11 145.259 1168 144.456 1168H144.167L138.225 1100.05L152.419 1081.1C153.443 1081.78 154.616 1082.2 155.838 1082.33C156.81 1082.42 157.789 1082.31 158.717 1082.01C159.646 1081.71 160.507 1081.23 161.248 1080.6L173.406 1093.44L154.577 1146.43L146.827 1168.34ZM415.336 1055.28L419.592 998.233L428.147 883.681H428.558C431.186 883.689 433.737 882.787 435.776 881.128L487.672 940.623L534.205 996.03C533.131 997.575 532.69 999.472 532.973 1001.33C533.256 1003.19 534.24 1004.87 535.724 1006.03L494.161 1064.86L415.336 1055.28ZM534.752 995.376L517.883 975.286L535.071 995.042C534.949 995.118 534.858 995.255 534.752 995.376ZM417.601 868.91C417.316 869.899 417.157 870.92 417.13 871.949L405.884 883.939L397.465 888.498L275.786 953.646L289.463 863.439L295.009 826.967L378.317 855.491L417.601 868.91ZM307.015 673.694C306.349 674.787 305.871 675.984 305.601 677.235L256.79 668.344L234.481 642.951L199.346 602.862L233.676 625.429L307.015 673.694ZM144.198 554.294L133.742 555.008C133.837 553.939 133.705 552.863 133.354 551.849C133.003 550.836 132.441 549.908 131.706 549.127L140.079 540.328L146.872 546.406C145.121 548.498 144.163 551.14 144.167 553.868C144.183 554.05 144.198 554.172 144.198 554.294ZM131.113 548.473C130.267 547.709 129.251 547.156 128.15 546.861C127.048 546.565 125.892 546.534 124.776 546.771L118.439 520.724L139.456 539.75L131.113 548.473ZM38.733 447.431L-4.98774 407.919L68.9895 352.725C69.8895 353.817 71.0424 354.672 72.348 355.217L46.149 427.128L38.733 447.431ZM-60.9722 304.886L-93.873 294.841L-96.6084 259.068L-100.271 211.138C-98.2415 210.872 -96.378 209.878 -95.0276 208.34C-93.6772 206.803 -92.9319 204.826 -92.9308 202.78C-92.9354 202.332 -92.971 201.885 -93.0372 201.442L-27.6156 187.553L10.8168 247.184L-60.9722 304.886ZM-103.675 194.68C-104.779 194.979 -105.813 195.495 -106.714 196.2L-107.444 195.379L-164.811 132.343L-127.336 93.6071L-103.675 194.68ZM-279.956 251.044C-277.876 253.03 -275.212 254.293 -272.358 254.646L-272.51 256.272L-293.177 262.822L-280.777 251.272L-279.956 251.044ZM-265.96 255.117L-188.32 462.369L-167.835 517.077C-169.192 517.661 -170.4 518.544 -171.368 519.659C-172.336 520.775 -173.04 522.095 -173.427 523.52L-262.48 406.005L-282.539 379.547L-271.613 256.91L-265.96 255.117ZM-284.621 651.522L-307.857 663.679L-297.69 549.704L-201.374 564.551L-284.621 651.522ZM-309.073 667.752C-311.045 667.646 -313.006 668.104 -314.726 669.074L-315.136 668.405L-308.845 665.123L-309.073 667.752ZM-310.501 688.799C-309.119 688.926 -307.726 688.777 -306.402 688.361C-305.078 687.944 -303.85 687.269 -302.79 686.374C-301.729 685.479 -300.857 684.382 -300.224 683.147C-299.592 681.912 -299.211 680.563 -299.104 679.18C-299.104 678.891 -299.104 678.587 -299.104 678.298L-211.282 675.122L-301.322 795.799L-320.014 820.858C-321.24 820.021 -322.668 819.528 -324.149 819.432C-325.63 819.336 -327.11 819.639 -328.433 820.311L-357.808 767.989L-314.224 687.69C-313.063 688.288 -311.8 688.664 -310.501 688.799ZM-254.395 1213.34C-254.716 1211.05 -255.861 1208.96 -257.617 1207.46L-216.16 1154.04L-202.939 1167.31C-204.429 1168.91 -205.346 1170.96 -205.55 1173.14C-205.753 1175.31 -205.231 1177.5 -204.064 1179.35L-253.62 1213.27L-254.395 1213.34ZM-5.94514 968.418L-5.53485 965.378C-4.06471 965.502 -2.58674 965.263 -1.23032 964.682C0.126102 964.102 1.31962 963.198 2.24583 962.05L12.1845 969.345L133.758 1058.69L137.359 1099.72L113.045 1132.16L69.5214 1072.23L-5.94514 968.418ZM174.409 1093.26L184.271 1065.51L252.656 1041.19C253.393 1043.03 254.623 1044.63 256.21 1045.81C257.798 1047 259.681 1047.72 261.653 1047.9C262.471 1047.98 263.296 1047.98 264.115 1047.9L282.943 1150.35L289.25 1184.74L285.694 1184.53L259.1 1182.9L182.828 1102.36L174.409 1093.26ZM274.342 1098.44L265.011 1047.62C265.397 1047.53 265.777 1047.42 266.151 1047.29L380.794 1167.6L349.337 1188.25L290.192 1184.67L274.342 1098.44ZM404.684 1182.02C402.269 1182.02 399.938 1182.91 398.134 1184.51L382.132 1167.71L406.75 1151.54L407.313 1151.17L405.003 1182.04L404.684 1182.02ZM400.307 1154.76L381.524 1167.08L299.158 1080.64L267.017 1046.91C269.585 1045.76 271.596 1043.65 272.609 1041.03L411.917 1089.4L407.358 1150.18L400.307 1154.76ZM463.981 1106.57L412.829 1088.81L415.26 1056.1L493.523 1065.62L466.959 1103.23C465.616 1103.99 464.567 1105.19 463.981 1106.62V1106.57ZM596.83 1070.58C595.017 1072.24 593.817 1074.47 593.426 1076.89L495.043 1064.93L536.347 1006.5C537.515 1007.24 538.869 1007.64 540.253 1007.64C541.337 1007.64 542.407 1007.4 543.383 1006.93L552.198 1017.43L596.83 1070.58ZM419.029 861.22C418.464 862.086 418.119 863.078 418.026 864.108C417.945 865.079 418.085 866.056 418.437 866.965C418.25 867.318 418.087 867.684 417.95 868.059L373.546 852.862L295.237 826.055L307.866 742.93L308.823 742.838C309.201 745.624 310.574 748.178 312.689 750.03C314.803 751.882 317.516 752.906 320.327 752.914C322.893 752.916 325.385 752.06 327.409 750.482L417.631 859.533L419.029 861.22ZM117.285 519.706L123.91 546.954C122.456 547.402 121.168 548.273 120.21 549.456C119.253 550.638 118.668 552.079 118.531 553.595C118.47 554.421 118.542 555.252 118.743 556.056L-3.05779 564.536L39.0673 448.92L69.0503 476.046L117.285 519.706ZM-165.951 132.404L-261.598 231.274C-263.765 229.286 -266.527 228.069 -269.455 227.809H-269.896L-265.063 23.5049L-165.951 132.404ZM-344.891 283.124C-344.89 282.097 -345.028 281.075 -345.302 280.085L-296.52 264.813L-339.345 304.628L-349.025 291.863C-347.73 290.804 -346.688 289.471 -345.973 287.96C-345.258 286.448 -344.888 284.796 -344.891 283.124ZM-294.636 264.174L-272.494 257.214L-283.299 378.529L-338.828 305.312L-294.636 264.174ZM-173.655 524.569C-173.655 524.751 -173.655 524.949 -173.731 525.131C-173.849 526.515 -173.672 527.908 -173.211 529.218C-172.75 530.528 -172.015 531.725 -171.057 532.73L-200.645 563.67L-297.584 548.762L-282.615 380.809L-173.655 524.569ZM-308.754 664.105L-315.577 667.676L-397.639 534.219L-298.541 549.415L-308.754 664.105ZM-315.455 669.53C-317.369 670.825 -318.8 672.716 -319.528 674.909L-324.695 673.39L-315.896 668.831L-315.455 669.53ZM-340.955 799.735L-329.193 820.706C-330.391 821.467 -331.376 822.517 -332.059 823.761C-332.742 825.004 -333.1 826.4 -333.099 827.818C-333.114 828.046 -333.114 828.274 -333.099 828.502L-395.192 836.86L-358.295 768.886L-340.955 799.735ZM-308.222 935.243L-284.773 1083.91L-352.292 1016.18L-339.907 932.979L-308.222 935.243ZM-284.545 1085.43L-265.671 1205.3C-267.664 1205.73 -269.463 1206.8 -270.792 1208.34L-362.656 1132.97C-361.824 1131.84 -361.289 1130.52 -361.102 1129.13C-360.915 1127.74 -361.081 1126.32 -361.585 1125.01C-362.09 1123.71 -362.916 1122.54 -363.988 1121.64C-365.059 1120.74 -366.342 1120.12 -367.717 1119.84L-352.52 1017.23L-284.545 1085.43ZM-203.593 1180.06C-202.755 1181.19 -201.688 1182.13 -200.462 1182.81C-199.237 1183.5 -197.88 1183.92 -196.481 1184.04C-194.241 1184.25 -191.999 1183.68 -190.129 1182.43L-173.412 1205.74L-251.873 1213.08L-203.593 1180.06ZM-189.43 1181.93C-188.304 1181.05 -187.381 1179.93 -186.724 1178.66C-186.067 1177.39 -185.691 1175.99 -185.622 1174.56C-185.553 1173.13 -185.792 1171.7 -186.323 1170.37C-186.854 1169.04 -187.665 1167.84 -188.7 1166.86L-10.4889 963.615L-6.82657 968.646L-37.0071 1192.86L-172.379 1205.56L-189.43 1181.93ZM-6.11233 969.633L4.75332 984.602L112.498 1132.97L75.5545 1182.3L-36.1409 1192.78L-6.11233 969.633ZM113.029 1133.76L139.274 1169.91C138.319 1170.68 137.55 1171.66 137.024 1172.77C136.498 1173.88 136.228 1175.09 136.235 1176.32C136.235 1176.43 136.235 1176.55 136.235 1176.66L76.7094 1182.25L113.029 1133.76ZM147.632 1168.71L174.09 1094.25L257.914 1182.69L152.693 1176.31C152.709 1174.68 152.242 1173.08 151.349 1171.71C150.456 1170.34 149.179 1169.27 147.678 1168.63L147.632 1168.71ZM289.478 1185.56L294.66 1213.75C293.098 1214.12 291.648 1214.86 290.435 1215.91L260.042 1183.77L289.478 1185.56ZM297.699 1213.54C296.967 1213.46 296.228 1213.46 295.496 1213.54L290.359 1185.56L348.106 1189.06L304.75 1217.52C303.938 1216.38 302.887 1215.42 301.669 1214.72C300.452 1214.02 299.098 1213.59 297.699 1213.46V1213.54ZM381.402 1168.31L397.511 1185.23C395.978 1186.83 395.02 1188.89 394.791 1191.09L350.72 1188.42L381.402 1168.31ZM412.753 1089.81L463.768 1107.42C463.768 1107.6 463.692 1107.82 463.647 1108.01L456.732 1117.8L408.3 1149.56L412.753 1089.81ZM463.464 1109.75C463.512 1110.82 463.814 1111.86 464.346 1112.79L458.616 1116.54L463.464 1109.75ZM471.063 1102.41C470.197 1102.34 469.327 1102.43 468.494 1102.68L494.526 1065.84L593.304 1077.86C593.225 1078.83 593.276 1079.81 593.456 1080.77L477.065 1107.42C476.691 1106.06 475.912 1104.85 474.832 1103.94C473.752 1103.03 472.422 1102.47 471.017 1102.33L471.063 1102.41ZM540.299 992.991C538.651 992.968 537.044 993.503 535.74 994.51L488.159 939.954L437.432 879.548C439.113 877.501 440.027 874.932 440.016 872.284C440.022 871.092 439.837 869.907 439.469 868.773L626.889 800.935L618.47 901.932L544.538 994.252C543.29 993.354 541.791 992.871 540.253 992.869L540.299 992.991ZM419.455 860.521L383.56 817.12L328.001 749.966C329.763 748.397 331.006 746.33 331.566 744.038C332.127 741.747 331.978 739.339 331.139 737.134C330.3 734.929 328.811 733.032 326.87 731.692C324.928 730.352 322.625 729.634 320.266 729.633H319.491L315.555 692.051L315.662 691.322H315.966C318.224 691.512 320.489 691.042 322.485 689.969L420.838 859.23C420.317 859.592 419.852 860.027 419.455 860.521ZM318.017 668.071C316.349 667.926 314.669 668.143 313.093 668.709L307.607 616.281L300.328 546.802C300.732 546.74 301.129 546.638 301.514 546.498L330.828 621.934L319.4 668.284C318.943 668.188 318.482 668.117 318.017 668.071ZM299.112 546.923H299.492L304.401 593.774L312.273 669.043C310.353 669.902 308.699 671.262 307.486 672.979L197.143 600.415L163.71 562.333C164.852 561.251 165.762 559.948 166.384 558.503C167.006 557.058 167.327 555.502 167.327 553.929C167.327 553.671 167.327 553.412 167.327 553.154L291.499 540.343C291.777 542.166 292.697 543.831 294.093 545.037C295.488 546.243 297.268 546.912 299.112 546.923ZM147.45 545.844L140.687 539.766L153.346 526.545L154.501 542.44C151.826 542.719 149.332 543.923 147.45 545.844ZM39.4017 448.054L73.2142 355.461C73.8075 355.646 74.4188 355.768 75.0378 355.825C75.8451 355.892 76.6576 355.851 77.4541 355.704L116.965 518.308L39.4017 448.054ZM75.7217 338.38C74.1905 338.381 72.6867 338.785 71.3602 339.55L11.9565 247.367L83.0465 190.197L75.7217 338.38ZM11.4854 246.577L-26.719 187.31L84.3533 163.724L83.1073 188.996L11.4854 246.577ZM-165.373 131.781L-265.033 22.2588L-262.845 -69.8937L-262.632 -81.0025C-259.811 -81.0429 -257.104 -82.1255 -255.033 -84.0418L-142.244 30.3282L-127.64 92.6345L-165.373 131.781ZM-261.72 -104.147C-262.508 -104.231 -263.303 -104.231 -264.091 -104.147L-264.729 -108.356L-252.283 -113.858L-257.814 -103.114C-259.045 -103.685 -260.368 -104.035 -261.72 -104.147ZM-325.516 836.207C-325.242 836.223 -324.968 836.223 -324.695 836.207C-324.396 836.222 -324.097 836.222 -323.798 836.207L-308.343 934.377L-339.785 932.128L-334.542 896.993L-325.516 836.207ZM-377.443 1129.94C-377.103 1131.42 -376.364 1132.78 -375.306 1133.87C-374.247 1134.96 -372.91 1135.73 -371.441 1136.11C-369.971 1136.49 -368.426 1136.46 -366.973 1136.02C-365.521 1135.58 -364.216 1134.75 -363.203 1133.62L-353.918 1141.22L-271.324 1208.9C-271.94 1209.73 -272.418 1210.66 -272.738 1211.64L-384.205 1180.9L-395.207 1133.21L-377.443 1129.94ZM604.641 1067.79C602.061 1067.68 599.525 1068.49 597.484 1070.07L544.143 1006.56C545.122 1005.96 545.946 1005.14 546.551 1004.16C547.155 1003.18 547.523 1002.08 547.625 1000.94C547.727 999.792 547.56 998.64 547.137 997.571C546.715 996.503 546.049 995.549 545.192 994.784L618.348 903.391L604.641 1067.79ZM720.972 766.895C721.56 768.311 722.464 769.574 723.616 770.588L619.412 900.762L627.77 800.631L720.972 766.895ZM625.476 739.1C626.191 740.138 627.117 741.014 628.193 741.671C629.269 742.328 630.471 742.752 631.722 742.914L626.965 799.947L439.195 867.922C438.509 866.209 437.418 864.688 436.015 863.489C434.613 862.29 432.94 861.449 431.141 861.038L625.476 739.1ZM422.737 858.424C422.328 858.538 421.931 858.69 421.552 858.88L323.214 689.62C325.122 688.413 326.639 686.68 327.584 684.63C328.529 682.58 328.861 680.301 328.54 678.066C328.219 675.832 327.258 673.738 325.774 672.038C324.29 670.337 322.345 669.102 320.175 668.481L331.329 623.286L422.737 858.424ZM418.589 249.616C419.624 250.534 420.848 251.214 422.175 251.607L331.177 620.414L302.304 546.148C303.579 545.571 304.675 544.662 305.476 543.514C306.277 542.367 306.754 541.025 306.857 539.629C306.96 538.234 306.684 536.836 306.059 535.584C305.434 534.332 304.483 533.272 303.306 532.515C302.129 531.758 300.77 531.332 299.371 531.283C297.973 531.234 296.587 531.563 295.36 532.235C294.132 532.907 293.109 533.898 292.397 535.103C291.686 536.308 291.312 537.682 291.317 539.082C291.317 539.203 291.317 539.31 291.317 539.431L167.16 552.257C166.778 549.488 165.408 546.951 163.302 545.113C161.196 543.275 158.497 542.261 155.702 542.258H155.276L154.091 525.542L418.589 249.616ZM153.27 525.344L140.049 539.142L118.075 519.25L78.2139 355.491C80.152 354.912 81.8289 353.678 82.9588 352C84.0887 350.322 84.6014 348.304 84.4095 346.29C84.2176 344.277 83.3331 342.392 81.9067 340.957C80.4803 339.523 78.6005 338.628 76.5879 338.425L83.943 189.498L121.266 159.485C121.989 160.299 122.876 160.951 123.868 161.399C124.861 161.847 125.937 162.08 127.026 162.083H127.162L153.27 525.344ZM119.549 156.308C119.785 157.208 120.181 158.057 120.719 158.816L84.0038 188.343L85.2196 163.603L119.549 156.308ZM85.3715 47.8196C85.5787 48.9207 86.1331 49.9264 86.9536 50.6894C87.774 51.4525 88.8173 51.9326 89.9305 52.0594L84.4597 162.919L-27.1445 186.611L-98.9639 75.1583C-98.0312 74.4896 -97.2538 73.6275 -96.6847 72.6309C-96.1156 71.6343 -95.7682 70.5267 -95.6662 69.3836C-95.6434 68.9939 -95.6434 68.6032 -95.6662 68.2135L85.3715 47.8196ZM-109.617 63.2745C-110.991 64.744 -111.755 66.6805 -111.755 68.6922C-111.755 70.7038 -110.991 72.6403 -109.617 74.1097L-126.88 91.9506L-141.059 31.4679L-109.617 63.2745ZM-142.502 28.7173L-254.319 -84.7105C-253.118 -85.9916 -252.222 -87.5287 -251.701 -89.206C-251.179 -90.8833 -251.045 -92.657 -251.309 -94.3936C-251.572 -96.1302 -252.226 -97.7844 -253.221 -99.2317C-254.217 -100.679 -255.527 -101.882 -257.055 -102.749L-250.976 -114.42L-195.007 -139.084C-193.897 -136.762 -192.155 -134.8 -189.98 -133.423C-187.805 -132.047 -185.286 -131.312 -182.713 -131.303C-181.809 -131.309 -180.909 -131.401 -180.023 -131.577L-142.502 28.7173ZM-196.177 -142.868C-196.017 -141.828 -195.742 -140.808 -195.356 -139.829L-250.474 -115.575L-239.183 -137.519L-196.177 -142.868ZM-268.71 -133.841L-240.186 -137.397L-251.69 -115.028L-264.896 -109.207L-268.71 -133.841ZM-293.025 -7.20754L-265.914 22.6083L-266.157 32.8812L-270.716 227.778C-273.883 227.79 -276.942 228.927 -279.348 230.985L-345.727 157.6C-344.509 156.378 -343.765 154.762 -343.63 153.041C-343.497 151.5 -343.854 149.955 -344.651 148.629C-345.448 147.302 -346.644 146.262 -348.067 145.656L-293.025 -7.20754ZM-282.539 251.743L-295.077 263.414L-345.56 279.341C-346.339 277.143 -347.781 275.241 -349.686 273.897C-351.591 272.552 -353.866 271.831 -356.198 271.833C-356.911 271.838 -357.623 271.904 -358.325 272.031L-282.539 251.743ZM410.078 1183.68C408.806 1182.85 407.36 1182.33 405.854 1182.16L408.209 1150.64L455.319 1119.75L410.078 1183.68Z" fill="url(#paint0_linear_58_2048)"/>
<path d="M2753.92 -22.4819V-24.0016L2745.8 -14.3061L2647.24 -156.562H2646.19L2745.24 -13.7135L2743.28 -11.2516L2608.64 -114.923L2607.89 -156.562H2606.92L2607.6 -115.683L2554.51 -156.562H2553.11L2607.62 -114.589L2610.75 71.0686L2566.25 94.4411L2451.93 -30.7337L2499.71 -156.562H2498.8L2451.29 -31.4328L2385.25 -103.754L2463.95 -156.562H2462.43L2384.64 -104.392L2380.08 -109.361L2429.59 -156.562H2428.36L2379.53 -109.999L2359.53 -131.898L2364.79 -156.562H2363.93L2358.8 -132.673L2337.01 -156.562H2335.68L2358.58 -131.488L2349.69 -89.5296C2347.63 -89.8813 2345.51 -89.6115 2343.61 -88.7546L2309.66 -156.562H2308.66L2342.73 -88.3594C2341 -87.4069 2339.58 -85.9843 2338.62 -84.2563L2300.63 -103.359L2294.01 -156.547H2293L2299.57 -103.875L2275.51 -116.033L2263.25 -156.562H2262.23L2274.39 -116.595L2194.85 -156.562H2192.95L2274.69 -115.531L2290.42 -63.6497L2235.71 -48.453L2134.35 -130.029C2135.29 -131.304 2135.94 -132.761 2136.28 -134.306C2136.62 -135.851 2136.63 -137.449 2136.31 -138.998C2135.99 -140.547 2135.35 -142.013 2134.43 -143.3C2133.52 -144.587 2132.34 -145.667 2130.98 -146.471L2136.3 -156.562H2135.17L2130.1 -146.973C2128.58 -147.699 2126.92 -148.078 2125.23 -148.082C2122.63 -148.085 2120.1 -147.183 2118.09 -145.529L2108.3 -156.562H2106.97L2117.36 -144.876C2115.72 -143.279 2114.6 -141.222 2114.15 -138.976C2113.7 -136.73 2113.94 -134.4 2114.84 -132.293L2060.81 -106.322L2015.79 -84.6818L2052.43 -156.562H2051.48L2014.52 -84.074L1946.34 -51.2948L1931.49 -156.562H1930.61L1945.53 -50.8997L1914.42 -35.9462L1842.73 -143.66L1845.45 -156.562H1844.44L1841.97 -144.8L1834.14 -156.562H1833.12L1841.72 -143.63L1817.52 -28.667L1801.33 -156.562H1800.46L1816.98 -26.0987L1811.47 0.0395053C1810.56 -0.12465 1809.65 -0.211095 1808.73 -0.218852C1806.5 -0.218246 1804.29 0.265548 1802.26 1.19934C1800.23 2.13313 1798.42 3.49485 1796.97 5.19117L1600.84 -154.51C1601.32 -155.142 1601.71 -155.831 1602.01 -156.562H1584.81C1585.3 -155.291 1586.07 -154.144 1587.06 -153.204L1432.42 29.6426C1430.82 28.3855 1428.96 27.5084 1426.98 27.078C1424.99 26.6476 1422.94 26.6752 1420.97 27.1587C1418.99 27.6421 1417.16 28.5688 1415.6 29.8681C1414.04 31.1675 1412.79 32.8055 1411.96 34.6575L1106.24 -90.8061C1106.46 -91.4266 1106.58 -92.0777 1106.6 -92.7361C1106.6 -93.9587 1106.23 -95.153 1105.55 -96.1681C1104.87 -97.1833 1103.9 -97.9736 1102.77 -98.4395C1101.64 -98.9053 1100.4 -99.0256 1099.2 -98.7852C1098 -98.5448 1096.9 -97.9546 1096.04 -97.089C1095.17 -96.2234 1094.59 -95.1213 1094.35 -93.9219C1094.11 -92.7226 1094.23 -91.4797 1094.7 -90.3505C1095.17 -89.2212 1095.96 -88.2561 1096.98 -87.5772C1098 -86.8982 1099.19 -86.5358 1100.42 -86.5358C1101.1 -86.5483 1101.78 -86.6715 1102.42 -86.9006L1181.44 94.8362C1180.62 95.2886 1179.93 95.9517 1179.45 96.7575C1178.97 97.5633 1178.71 98.483 1178.69 99.4225C1178.68 100.362 1178.92 101.287 1179.39 102.104C1179.85 102.921 1180.52 103.6 1181.34 104.072C1182.15 104.543 1183.07 104.791 1184.01 104.788C1184.95 104.786 1185.87 104.534 1186.68 104.058C1187.49 103.582 1188.16 102.9 1188.62 102.081C1189.08 101.261 1189.32 100.335 1189.3 99.3952C1189.32 99.1323 1189.32 98.8679 1189.3 98.605L1411.37 43.7451C1412.16 46.5267 1413.83 48.9782 1416.12 50.732C1418.42 52.4859 1421.23 53.4477 1424.12 53.4734C1427.01 53.4991 1429.83 52.5872 1432.16 50.8744C1434.49 49.1617 1436.2 46.7402 1437.04 43.973L1706.56 115.397C1706.34 116.516 1706.34 117.668 1706.56 118.786L1514.77 157.781C1514.65 157.256 1514.47 156.746 1514.24 156.261C1513.49 154.743 1512.26 153.52 1510.73 152.793C1509.21 152.067 1507.48 151.878 1505.83 152.259C1504.19 152.64 1502.72 153.567 1501.67 154.89C1500.61 156.213 1500.04 157.853 1500.04 159.544C1500.04 161.234 1500.61 162.874 1501.67 164.197C1502.72 165.52 1504.19 166.447 1505.83 166.828C1507.48 167.209 1509.21 167.021 1510.73 166.294C1512.26 165.567 1513.49 164.345 1514.24 162.826L1632.77 212.975L1520.31 345.186C1519.32 344.463 1518.12 344.074 1516.89 344.077C1515.76 344.067 1514.65 344.383 1513.7 344.986C1512.74 345.589 1511.97 346.455 1511.49 347.479C1511.01 348.504 1510.84 349.645 1510.99 350.767C1511.14 351.889 1511.6 352.944 1512.34 353.808C1513.07 354.671 1514.03 355.307 1515.11 355.639C1516.19 355.971 1517.35 355.986 1518.44 355.681C1519.53 355.377 1520.51 354.766 1521.26 353.921C1522.01 353.076 1522.51 352.033 1522.68 350.915L1786.23 371.218L1813.24 445.697L1812.49 446.031C1810.35 447.096 1808.61 448.813 1807.52 450.934C1806.43 453.054 1806.04 455.467 1806.41 457.823L1533.34 512.091C1533.2 511.566 1533.01 511.057 1532.78 510.571C1531.76 508.999 1530.19 507.857 1528.39 507.367C1526.58 506.876 1524.65 507.071 1522.98 507.913C1521.31 508.755 1520 510.186 1519.32 511.93C1518.64 513.675 1518.62 515.61 1519.28 517.364C1519.38 517.537 1519.48 517.704 1519.6 517.865L1212.98 728.111C1212.22 727.158 1211.21 726.438 1210.06 726.035C1208.91 725.633 1207.67 725.564 1206.49 725.836C1205.3 726.109 1204.21 726.712 1203.36 727.576C1202.5 728.44 1201.9 729.529 1201.64 730.717C1201.38 731.905 1201.45 733.144 1201.86 734.29C1202.27 735.436 1203 736.442 1203.96 737.192C1204.92 737.942 1206.07 738.405 1207.28 738.527C1208.49 738.649 1209.71 738.426 1210.8 737.883C1212.17 737.196 1213.24 736.049 1213.84 734.646L1425.59 809.428C1425.22 810.694 1425.23 812.041 1425.62 813.302C1426 814.563 1426.75 815.684 1427.76 816.527C1428.78 817.37 1430.01 817.898 1431.32 818.047C1432.64 818.195 1433.96 817.957 1435.14 817.361C1436.23 816.805 1437.16 815.961 1437.81 814.919C1438.46 813.878 1438.82 812.679 1438.84 811.45L1744.86 801.085C1744.96 802.42 1745.32 803.722 1745.92 804.915C1746.9 806.867 1748.47 808.456 1750.41 809.449C1752.35 810.443 1754.56 810.79 1756.71 810.438C1758.86 810.087 1760.85 809.055 1762.37 807.495C1763.89 805.936 1764.88 803.929 1765.18 801.769L2008.77 827.102C2008.64 828.974 2009 830.846 2009.8 832.544C2010.59 834.242 2011.8 835.712 2013.32 836.817C2014.84 837.922 2016.61 838.626 2018.47 838.864C2020.33 839.103 2022.22 838.868 2023.96 838.181L2117.18 1046.91C2115.97 1047.54 2114.95 1048.48 2114.23 1049.64C2113.51 1050.79 2113.11 1052.12 2113.09 1053.49C2113.06 1054.85 2113.39 1056.19 2114.06 1057.38C2114.73 1058.57 2115.71 1059.55 2116.89 1060.23C2118.07 1060.91 2119.42 1061.26 2120.78 1061.25C2122.14 1061.23 2123.48 1060.84 2124.64 1060.13C2125.8 1059.42 2126.76 1058.41 2127.39 1057.21C2128.03 1056.01 2128.34 1054.65 2128.27 1053.29L2286.56 1036.38C2286.7 1037.27 2286.98 1038.13 2287.38 1038.94C2288.11 1040.4 2289.23 1041.63 2290.62 1042.48C2292.01 1043.33 2293.62 1043.77 2295.25 1043.75C2296.88 1043.73 2298.47 1043.25 2299.84 1042.36C2301.21 1041.48 2302.3 1040.22 2302.99 1038.75L2494.68 1118.21C2493.82 1120.47 2493.75 1122.96 2494.47 1125.27C2495.19 1127.58 2496.67 1129.58 2498.66 1130.95C2500.66 1132.32 2503.05 1132.99 2505.47 1132.84C2507.88 1132.69 2510.18 1131.73 2511.99 1130.12L2501.65 1167.46C2501.05 1167.32 2500.42 1167.25 2499.8 1167.25C2497.47 1167.25 2495.24 1168.17 2493.6 1169.82C2491.95 1171.46 2491.03 1173.69 2491.03 1176.02C2491.03 1178.34 2491.95 1180.57 2493.6 1182.22C2495.24 1183.86 2497.47 1184.79 2499.8 1184.79H2500.48L2516.33 1302.32H2517.32L2501.49 1184.62C2503.07 1184.3 2504.53 1183.56 2505.73 1182.48L2530.88 1207.03L2628.38 1302.32H2629.81L2506.41 1181.76C2507.8 1180.17 2508.57 1178.13 2508.57 1176.02C2508.57 1175.57 2508.52 1175.12 2508.45 1174.68L2717.64 1129.87C2717.77 1130.22 2717.92 1130.56 2718.08 1130.9C2718.7 1132.13 2719.55 1133.24 2720.59 1134.14C2721.63 1135.05 2722.84 1135.74 2724.15 1136.17C2725.46 1136.61 2726.85 1136.78 2728.22 1136.68C2729.6 1136.58 2730.94 1136.2 2732.17 1135.58C2733.78 1134.77 2735.16 1133.56 2736.15 1132.05L2753.92 1143.04V1142.04L2736.61 1131.4C2737.6 1129.63 2738.07 1127.61 2737.95 1125.58L2753.92 1122.16V1121.16L2737.84 1124.52C2737.69 1123.64 2737.44 1122.79 2737.1 1121.98L2753.92 1113.88V1112.92L2736.73 1121.2C2735.66 1119.17 2733.96 1117.54 2731.88 1116.57C2729.79 1115.6 2727.45 1115.34 2725.21 1115.83C2722.96 1116.32 2720.94 1117.54 2719.46 1119.29C2717.97 1121.04 2717.1 1123.23 2716.97 1125.52L2559.61 1122.48L2574.49 1109L2753.92 1074.78V1073.91L2575.74 1107.91L2645.43 1044.76L2662.53 1035.33C2663.68 1037.25 2665.4 1038.76 2667.46 1039.65C2669.51 1040.55 2671.79 1040.78 2673.99 1040.31C2676.18 1039.85 2678.17 1038.72 2679.69 1037.07C2681.2 1035.42 2682.17 1033.34 2682.45 1031.12L2753.87 1037.39V1036.54L2682.49 1030.3C2682.63 1027.69 2681.81 1025.13 2680.19 1023.08C2678.58 1021.03 2676.27 1019.64 2673.71 1019.16L2753.92 946.472V945.195L2672.43 1019.02H2672.13L2671.58 859.456L2753.92 875.032V874.029L2671.58 858.438L2671.46 823.698L2736.67 806.982L2753.92 834.564V832.953L2737.54 806.708L2753.92 802.484V801.465L2736.99 805.827L2678.77 712.504L2684.71 703.493L2753.92 717.17V716.319L2685.23 702.642L2700.9 678.904L2753.92 640.761V639.727L2702.25 676.883L2753.92 598.712V596.919L2699.98 678.555L2678.04 694.451C2676.78 692.856 2675.05 691.71 2673.09 691.183L2686.76 629.652L2698.92 575.081C2700.3 575.315 2701.72 575.198 2703.04 574.739C2704.37 574.279 2705.55 573.494 2706.49 572.455C2707.43 571.415 2708.09 570.156 2708.42 568.792C2708.74 567.429 2708.72 566.006 2708.34 564.656L2753.93 549.642V548.76L2708.1 563.759C2708.01 563.505 2707.9 563.256 2707.78 563.015C2707.52 562.475 2707.21 561.965 2706.84 561.495L2743.93 528.549L2753.92 541.739V540.098L2744.68 527.941L2753.92 519.735V518.595L2744.16 527.257L2683.28 446.821L2753.92 424.573V423.692L2682.74 446.137L2651.16 404.438L2692.51 311.161L2753.92 331.585V330.552L2692.9 310.249L2701.09 291.77C2703.46 292.711 2706.09 292.71 2708.46 291.766C2710.82 290.821 2712.73 289.006 2713.8 286.694L2753.92 303.41V302.498L2714.12 285.949C2714.61 284.606 2714.81 283.174 2714.7 281.748C2714.59 280.322 2714.17 278.937 2713.48 277.684C2712.79 276.432 2711.84 275.341 2710.7 274.486C2709.55 273.632 2708.24 273.032 2706.84 272.728L2715.96 218.385L2753.86 209.145V208.158L2716.2 217.276L2721.12 188.174L2753.92 200.818V199.769L2721.29 187.186L2734.97 106.31L2753.93 100.125V99.0913L2735.15 105.17L2751.96 5.67746C2752.61 5.74592 2753.28 5.74592 2753.93 5.67746V-12.1938C2752.23 -12.3735 2750.52 -12.0568 2748.99 -11.282C2748.74 -11.155 2748.49 -11.0129 2748.25 -10.8565L2746.41 -13.5159L2753.92 -22.4819ZM2515.69 1121.66C2515.72 1121.3 2515.72 1120.95 2515.69 1120.6L2515.8 1120.25L2572.73 1109.38L2558.26 1122.48L2515.69 1121.66ZM2127.63 1003.03L2188.77 777.728L2272.69 829.397C2271.73 831.162 2271.41 833.208 2271.81 835.179C2272.2 837.15 2273.27 838.922 2274.83 840.186L2206.12 935.09L2194.68 950.818L2131.05 1005.22C2130.1 1004.23 2128.93 1003.48 2127.63 1003.03ZM1532.87 517.166L1862.31 645.411C1861.84 646.787 1861.64 648.246 1861.73 649.7C1861.83 651.155 1862.22 652.575 1862.88 653.875C1863.54 655.19 1864.46 656.358 1865.58 657.31L1761.04 791.952C1759.52 790.846 1757.72 790.184 1755.84 790.042C1753.96 789.9 1752.08 790.282 1750.41 791.147C1749.87 791.397 1749.36 791.697 1748.89 792.043L1531.06 519.689C1531.84 518.99 1532.45 518.129 1532.87 517.166ZM2125.23 -125.424C2126.84 -125.426 2128.43 -125.773 2129.9 -126.441C2131.36 -127.109 2132.67 -128.084 2133.73 -129.299L2234.53 -48.1643L2186.57 -34.852C2185.32 -36.3033 2183.69 -37.3704 2181.87 -37.928C2180.04 -38.4856 2178.09 -38.5106 2176.25 -38.0002C2174.41 -37.4897 2172.75 -36.4649 2171.47 -35.046C2170.19 -33.6271 2169.35 -31.8728 2169.03 -29.9891L2006.33 15.1602H1964.94L2015.09 -83.1774L2115.29 -131.351C2116.26 -129.559 2117.7 -128.063 2119.45 -127.02C2121.2 -125.976 2123.2 -125.425 2125.23 -125.424ZM2514.56 1117.01L2515.77 1116.32L2515.16 1118.54C2515 1118.02 2514.79 1117.51 2514.56 1117.01ZM2517.31 1114.5L2572.73 913.51L2664.44 1021.79C2663.39 1022.76 2662.54 1023.93 2661.95 1025.24C2661.35 1026.54 2661.02 1027.95 2660.98 1029.38L2644.5 1044.34L2588.55 1075.23L2517.31 1114.5ZM1723.33 117.221C1723.34 116.937 1723.34 116.653 1723.33 116.37L1824.28 95.8544C1824.43 96.4586 1824.65 97.0445 1824.93 97.602C1825.67 99.0929 1826.84 100.334 1828.27 101.173L1780.92 192.52L1720.8 123.3C1721.61 122.506 1722.25 121.559 1722.68 120.515C1723.11 119.471 1723.33 118.351 1723.33 117.221ZM2338.35 795.432L2288.2 725.741L2291.57 677.111L2327.13 696.867L2415.03 745.967L2370.46 774.75L2338.35 795.432ZM1891.57 518.777L2090.98 494.098C2091.12 494.432 2091.25 494.751 2091.42 495.07C2092.2 496.628 2093.34 497.973 2094.75 498.991L2043.87 575.05L1891.33 521.057C1891.5 520.444 1891.59 519.81 1891.6 519.172C1891.6 519.036 1891.57 518.914 1891.57 518.777ZM2044.23 16.1783L2192.48 16.3607L2197.72 33.3962L2215.35 89.8061L2151.86 137.235L1981.65 42.347L1968.48 34.9918C1969.83 32.3376 1970.21 29.2958 1969.56 26.3905L2009.22 16.1176L2044.23 16.1783ZM1827.51 451.015C1827.44 450.863 1827.35 450.711 1827.26 450.559L1902.48 404.194L1935.91 383.557C1935.99 385.834 1936.85 388.014 1938.35 389.73C1939.84 391.445 1941.89 392.592 1944.13 392.976C1946.38 393.36 1948.69 392.958 1950.67 391.837C1952.65 390.716 1954.19 388.946 1955.01 386.825L2123.39 443.706L2105.55 480.178C2104.02 479.491 2102.36 479.166 2100.69 479.23C2099.01 479.293 2097.38 479.743 2095.9 480.543C2094.43 481.343 2093.17 482.473 2092.2 483.844C2091.24 485.214 2090.61 486.789 2090.36 488.445L1828.62 456.942C1828.8 454.902 1828.41 452.854 1827.51 451.015ZM2225.44 575.111L2224.94 528.002L2287.73 547.043C2287.14 549.3 2287.18 551.677 2287.85 553.912L2237.52 571.023L2225.44 575.111ZM1912.65 110.094L1841.09 95.0186C1841.35 93.3487 1841.12 91.6374 1840.43 90.0949L1872.34 73.5761L1912.65 110.094ZM2234.59 644.302C2235.56 642.336 2235.86 640.104 2235.43 637.952C2235.01 635.8 2233.88 633.849 2232.23 632.403L2274.25 579.503L2290.69 558.836C2292.76 561.057 2295.56 562.455 2298.58 562.772L2290.74 675.607L2234.59 644.302ZM2252.12 63.6223L2294.67 116.628L2279.48 193.478L2269.19 192.535L2257.52 191.487C2257.59 189.911 2257.29 188.341 2256.65 186.902C2256 185.463 2255.03 184.196 2253.8 183.205C2252.57 182.213 2251.13 181.525 2249.59 181.195C2248.04 180.865 2246.45 180.903 2244.92 181.305L2239.86 165.09L2216.46 90.262L2252.12 63.6223ZM2614.73 467.048L2560.92 481.226L2556.77 432.779L2615.28 461.471C2614.52 463.238 2614.33 465.197 2614.73 467.078V467.048ZM2559.95 481.439L2397.12 524.248L2312.68 546.435C2313.19 545.19 2313.45 543.859 2313.46 542.514C2313.45 541.087 2313.16 539.676 2312.58 538.369C2312.01 537.062 2311.18 535.886 2310.13 534.916L2443.43 377.19L2555.74 432.263L2559.95 481.439ZM2430.05 731.394C2428.78 730.722 2427.37 730.365 2425.93 730.352C2424.49 730.339 2423.08 730.67 2421.79 731.318L2421.2 731.652L2307.23 560.477C2309.79 558.631 2311.56 555.893 2312.2 552.803L2450.21 696.928L2430.05 731.394ZM2042.97 228.947C2043.85 228.224 2044.56 227.316 2045.04 226.289C2045.53 225.262 2045.78 224.141 2045.78 223.005C2045.78 221.488 2045.33 220.006 2044.51 218.735L2121.83 160.987L2237.66 189.086C2237.22 191.277 2237.53 193.55 2238.54 195.544C2238.54 195.681 2238.68 195.788 2238.75 195.924L2087.15 289.353L2042.97 228.947ZM2251.97 200.073C2252.56 199.778 2253.13 199.421 2253.64 199.009L2268.22 216.212C2268.16 216.67 2268.13 217.132 2268.13 217.595C2268.12 219.422 2268.55 221.225 2269.38 222.856C2270.2 224.487 2271.4 225.902 2272.87 226.986L2261.55 284.278L2249.39 200.894C2250.29 200.721 2251.16 200.425 2251.97 200.012V200.073ZM2273.7 227.503C2274.65 228.09 2275.67 228.536 2276.74 228.825L2262.79 293.669L2261.83 287.15L2273.7 227.503ZM2282.82 436.335L2235.71 468.461C2233.69 465.678 2230.75 463.694 2227.41 462.854L2262.73 298.836L2282.82 436.335ZM2236.3 469.282L2282.99 437.369L2297.06 533.913C2296.43 534.358 2295.84 534.868 2295.31 535.433L2235.53 486.044C2237.38 483.656 2238.44 480.756 2238.58 477.74C2238.72 474.723 2237.93 471.738 2236.3 469.191V469.282ZM2283.6 435.849L2263.28 296.481L2277.79 229.083C2278.29 229.168 2278.8 229.218 2279.31 229.235L2370.67 337.041C2369.45 338.173 2368.52 339.594 2367.98 341.175C2367.45 342.756 2367.31 344.447 2367.6 346.092C2367.88 347.738 2368.57 349.286 2369.61 350.596C2370.65 351.905 2371.99 352.935 2373.53 353.59L2362.89 381.749L2283.6 435.849ZM2262.32 296.116L2235.5 420.728L2261.33 289.764L2262.32 296.116ZM2302.97 532.135C2301.16 532.136 2299.37 532.619 2297.81 533.533L2283.72 436.943L2362.21 383.36L2305.98 532.606C2305.03 532.29 2304.04 532.116 2303.03 532.09L2302.97 532.135ZM2374.21 353.894C2376.44 354.629 2378.85 354.559 2381.03 353.695C2383.21 352.831 2385.01 351.228 2386.13 349.167L2400.35 356.143L2364.05 380.928L2374.21 353.894ZM2291.29 218.978C2291.43 217.855 2291.4 216.717 2291.19 215.604L2312.47 211.045L2352.65 202.383C2352.75 203.778 2353.13 205.14 2353.74 206.395C2354.68 208.261 2356.15 209.812 2357.96 210.857C2359.77 211.902 2361.84 212.395 2363.93 212.276L2365.8 231.181L2291.29 218.978ZM2352.56 201.365L2291 214.647C2290.46 212.563 2289.35 210.668 2287.81 209.172C2286.26 207.676 2284.33 206.636 2282.23 206.167L2284.2 194.845L2352.59 201.03C2352.61 201.126 2352.62 201.222 2352.62 201.319L2352.56 201.365ZM2281.3 205.954C2280.8 205.889 2280.29 205.853 2279.78 205.848C2279.18 205.852 2278.58 205.903 2277.99 206L2280.27 194.435L2283.31 194.709L2281.3 205.954ZM2276.94 206.197C2274.83 206.732 2272.92 207.842 2271.41 209.404C2269.89 210.966 2268.85 212.918 2268.38 215.042L2254.28 198.401C2256 196.803 2257.11 194.652 2257.41 192.323L2279.28 194.298L2276.94 206.197ZM2239.18 196.654C2240.07 197.986 2241.28 199.081 2242.69 199.845L2174.93 338.347L2154.11 380.898L2087.65 290.037L2239.18 196.654ZM2243.45 200.24C2245.03 200.929 2246.77 201.196 2248.49 201.015L2261.01 286.8L2226.24 462.61C2225.46 462.478 2224.67 462.407 2223.87 462.398C2220.91 462.394 2218.02 463.296 2215.59 464.981L2154.67 381.704L2243.45 200.24ZM2372.92 335.384C2372.33 335.68 2371.77 336.031 2371.25 336.433L2280.37 229.19C2282.95 229.057 2285.41 228.074 2287.36 226.393C2289.32 224.713 2290.66 222.43 2291.18 219.905L2365.89 232.138L2375.99 334.427C2374.93 334.577 2373.9 334.901 2372.94 335.384H2372.92ZM1935.05 124.47C1936.18 124.814 1937.37 124.93 1938.55 124.81C1939.73 124.69 1940.87 124.338 1941.92 123.772C1942.96 123.206 1943.88 122.44 1944.62 121.516C1945.36 120.592 1945.92 119.53 1946.25 118.391L2120.57 160.683L2043.9 217.959C2043.22 217.142 2042.37 216.475 2041.41 216C2040.46 215.526 2039.42 215.254 2038.35 215.203C2037.29 215.151 2036.22 215.321 2035.23 215.701C2034.23 216.082 2033.32 216.664 2032.56 217.412L1933.78 127.995L1935.05 124.47ZM2037.99 230.846C2039.47 230.844 2040.92 230.411 2042.17 229.6L2086.24 289.931L1952.73 372.282L2034.55 230.026C2035.62 230.549 2036.8 230.815 2037.99 230.801V230.846ZM2214.82 465.604C2212.7 467.28 2211.08 469.503 2210.14 472.032L2124.65 443.159L2154.2 382.767L2214.82 465.604ZM2209.82 472.959C2209.4 474.339 2209.19 475.773 2209.19 477.214C2209.19 477.655 2209.19 478.081 2209.19 478.521L2111.94 490.557C2112.01 488.532 2111.51 486.526 2110.5 484.769C2109.49 483.012 2108.01 481.574 2106.22 480.618L2124.12 444.04L2209.82 472.959ZM2111.95 491.545L2209.38 479.494C2209.91 482.901 2211.62 486.014 2214.21 488.289C2216.8 490.564 2220.11 491.856 2223.55 491.94L2223.93 526.892L2111.68 492.958C2111.8 492.479 2111.89 491.991 2111.95 491.499V491.545ZM2224.54 491.925C2226.52 491.837 2228.46 491.352 2230.24 490.498C2232.02 489.644 2233.61 488.439 2234.92 486.955L2294.71 536.345C2293.95 537.363 2293.38 538.511 2293.03 539.733C2290.66 541.27 2288.87 543.569 2287.97 546.253L2224.92 527.196L2224.54 491.925ZM2450.73 696.122L2312.44 551.648V551.055L2523.9 556.754C2523.93 558.085 2524.26 559.394 2524.86 560.583C2525.55 561.986 2526.6 563.181 2527.9 564.048L2497.73 615.641L2450.73 696.122ZM2346.65 490.132L2309.32 534.202C2308.57 533.62 2307.73 533.144 2306.85 532.789L2342.35 438.493L2363.45 382.433L2383.68 368.619L2401.39 356.538L2442.42 376.689L2346.65 490.132ZM2431.4 370.367L2402.19 356.051L2469.82 309.975L2485.54 325.901L2443.1 376.126L2431.4 370.367ZM2352.67 200.164L2284.37 193.979L2297.3 120.047L2356.24 193.508C2354.31 195.224 2353.06 197.576 2352.73 200.134L2352.67 200.164ZM2244.04 181.624C2243.66 181.762 2243.29 181.919 2242.93 182.095C2241.26 182.93 2239.87 184.221 2238.9 185.819L2152.83 137.812L2215.68 90.8699L2244.04 181.624ZM2238.49 186.563C2238.22 187.12 2238 187.699 2237.82 188.296L2122.66 160.349L2152.13 138.344L2238.49 186.563ZM1929.54 119.926C1930.52 121.875 1932.18 123.403 1934.19 124.227L1933.07 127.403L1915.76 111.72L1928.72 114.455C1928.43 116.315 1928.73 118.22 1929.59 119.896L1929.54 119.926ZM2433.89 735.39C2433.18 733.955 2432.09 732.738 2430.75 731.865L2450.77 697.596L2481.9 730.041L2434.79 737.639C2434.6 736.858 2434.31 736.103 2433.94 735.39H2433.89ZM2470.48 309.443L2532.2 267.333C2532.62 267.911 2533.1 268.445 2533.63 268.929L2486.06 325.157L2470.48 309.443ZM2469.07 309.215L2401.22 355.565L2386.57 348.377C2387.26 346.81 2387.53 345.092 2387.37 343.388C2387.2 341.684 2386.61 340.05 2385.63 338.643C2384.65 337.236 2383.33 336.103 2381.8 335.352C2380.26 334.6 2378.55 334.255 2376.84 334.351L2366.9 233.749L2366.77 232.229L2398.18 237.381L2469.07 309.215ZM2366.62 231.257L2364.73 212.124C2365.89 211.968 2367.01 211.619 2368.04 211.091C2368.92 210.646 2369.73 210.083 2370.46 209.419L2396.95 236.226L2366.62 231.257ZM2296.5 118.984L2283.4 193.858L2280.36 193.584L2295.37 117.601L2295.68 117.981L2296.5 118.984ZM2252.78 63.136L2305.59 23.6247C2307.27 25.6951 2309.59 27.1574 2312.18 27.7886L2294.84 115.504L2252.78 63.136ZM2121.43 160.015L1946.43 117.555C1946.86 115.333 1946.44 113.03 1945.25 111.105C1944.06 109.181 1942.18 107.777 1940 107.176L1954.85 41.7087C1957.4 42.2114 1960.05 41.91 1962.43 40.846C1964.81 39.7821 1966.8 38.0077 1968.13 35.7668L2151.14 137.812L2121.43 160.015ZM1933.45 128.983L1984.09 174.847L2031.92 218.157C2031.25 218.998 2030.75 219.971 2030.47 221.014C2030.19 222.058 2030.13 223.148 2030.3 224.216C2030.46 225.283 2030.85 226.304 2031.43 227.213C2032.02 228.122 2032.79 228.899 2033.69 229.494L1980.2 322.467L1950.96 373.315L1949.74 374.06C1948.51 373.528 1947.18 373.254 1945.84 373.254C1944.8 373.249 1943.78 373.408 1942.8 373.725L1893.64 241.742L1933.45 128.983ZM1951.22 374.85L1951.84 373.771L2086.78 290.584L2153.65 381.931L2123.85 442.824L1955.38 385.959C1955.96 383.914 1955.87 381.736 1955.12 379.747C1954.37 377.757 1953 376.062 1951.22 374.911V374.85ZM2299.45 562.878C2301.55 562.946 2303.64 562.487 2305.53 561.541C2305.86 561.375 2306.19 561.187 2306.5 560.978L2420.47 732.169C2418.77 733.443 2417.56 735.275 2417.06 737.346C2416.57 739.416 2416.81 741.596 2417.75 743.505L2418.03 743.976L2415.87 745.375L2291.54 676.093L2299.45 562.878ZM2589.79 830.871C2587.19 831.197 2584.75 832.311 2582.8 834.062L2483.74 730.603L2579.9 715.209L2585.61 782.074L2589.79 830.871ZM2661.22 701.319L2580.87 714.206L2570.81 596.797L2663.76 693.736C2662.81 694.74 2662.09 695.938 2661.65 697.248C2661.21 698.557 2661.06 699.947 2661.22 701.319ZM2579.87 714.343L2483.05 729.844L2451.32 696.715L2528.66 564.428C2529.91 565.091 2531.3 565.444 2532.72 565.458C2534.14 565.471 2535.54 565.144 2536.8 564.504C2537.48 564.169 2538.1 563.745 2538.66 563.243L2569.72 595.672L2579.87 714.343ZM2539.28 562.65C2540.82 561.008 2541.69 558.847 2541.71 556.595C2541.73 554.343 2540.91 552.165 2539.4 550.493L2563.72 526.041L2569.55 594.259L2539.28 562.65ZM2538.79 549.885C2537.56 548.761 2536.03 548.007 2534.38 547.711C2532.73 547.414 2531.04 547.586 2529.49 548.207C2527.93 548.828 2526.59 549.874 2525.6 551.224C2524.61 552.574 2524.02 554.174 2523.9 555.842L2312.44 550.174C2312.43 549.295 2312.34 548.419 2312.15 547.56V547.469L2559.96 482.351L2563.61 524.902L2538.79 549.885ZM2560.98 482.093L2614.94 467.914C2615.08 468.396 2615.27 468.864 2615.49 469.312C2615.87 470.074 2616.36 470.78 2616.93 471.409L2564.57 523.99L2560.98 482.093ZM2531.68 266.513L2469.83 308.729L2399.61 237.654L2530.03 258.93C2529.96 259.388 2529.93 259.85 2529.93 260.313C2529.92 262.502 2530.53 264.651 2531.68 266.513ZM2295.66 116.537L2306.89 59.7472L2296.73 117.859L2295.66 116.537ZM2305.02 22.8801L2252.18 62.3914L2218.08 19.8407L2215.3 16.3759L2302.93 16.4671C2303.01 18.7598 2303.73 20.9831 2305.02 22.8801ZM2251.5 62.8625L2216.14 89.2894L2193.34 16.3455H2214.22L2251.5 62.8625ZM2193.02 15.3729L2182.39 -18.7588C2182.77 -18.8936 2183.14 -19.0509 2183.5 -19.2299C2184.03 -19.491 2184.54 -19.796 2185.02 -20.1417L2213.54 15.4033L2193.02 15.3729ZM1819.98 26.2385L1824.06 29.9465L1828.88 67.9381L1814.66 29.7793C1816.66 28.977 1818.47 27.7716 1819.98 26.2385ZM1825.05 30.7975L1871.65 72.9986L1840.02 89.3502C1839 87.58 1837.39 86.2286 1835.46 85.5359L1830.23 71.5246L1825.05 30.7975ZM1840.07 97.9667C1840.44 97.3126 1840.72 96.6126 1840.9 95.8848L1886.02 105.383L1913.91 111.264L1932.77 128.345L1893.18 240.451L1858.47 147.371L1840.07 97.9667ZM2000.3 650.471C1999.54 648.941 1998.42 647.617 1997.03 646.612L2044.14 576.16L2131.39 607.039L2000.7 651.444C2000.6 651.155 2000.47 650.821 2000.3 650.502V650.471ZM2044.71 575.324L2095.45 499.432C2096.83 500.292 2098.4 500.828 2100.02 501.001C2101.64 501.173 2103.28 500.978 2104.82 500.428C2106.35 499.879 2107.75 498.991 2108.89 497.829C2110.04 496.667 2110.91 495.262 2111.43 493.718L2223.89 527.728L2224.41 575.415L2132.83 606.538L2044.71 575.324ZM2288.11 554.641C2288.27 555.056 2288.44 555.462 2288.64 555.857C2289.03 556.63 2289.49 557.362 2290.02 558.045L2231.46 631.749C2229.87 630.608 2227.98 629.962 2226.03 629.895L2225.45 575.947L2288.11 554.641ZM2234.1 645.137L2290.66 676.655L2287.38 724.646L2231.93 647.721C2232.79 647.01 2233.53 646.157 2234.1 645.198V645.137ZM2432.04 746.119C2433.06 745.154 2433.84 743.965 2434.33 742.647C2434.81 741.329 2434.98 739.917 2434.83 738.521L2476.09 731.91L2482.61 730.877L2560.3 811.997L2582.15 834.792C2581.48 835.489 2580.9 836.258 2580.4 837.086L2445.43 761.787L2432.04 746.119ZM2615.63 460.696L2556.67 431.822L2553.49 394.697L2616.98 458.902C2616.46 459.445 2616.01 460.047 2615.63 460.696ZM2555.63 431.275L2443.98 376.567L2486.21 326.6L2542.21 383.284L2552.39 393.587L2555.63 431.275ZM2486.78 325.901L2499.54 310.796L2534.39 269.567C2536.42 271.161 2538.93 272.028 2541.51 272.029H2542L2552.29 392.235L2486.78 325.901ZM2600.99 141.292C2600.16 143.391 2599.93 145.682 2600.34 147.903L2372.94 196.943L2534.27 112.206L2600.99 141.292ZM2372.48 196.183C2371.35 194.148 2369.58 192.545 2367.44 191.624L2417.02 61.0085L2533.2 111.705L2372.48 196.183ZM2366.71 191.441C2365.56 191.047 2364.36 190.861 2363.15 190.894L2354.49 33.8217L2416.31 60.7501L2366.71 191.441ZM2362.28 190.94C2360.97 191.056 2359.69 191.423 2358.52 192.019C2357.98 192.295 2357.47 192.62 2357 192.991L2297.59 118.953L2313.47 28.1381C2314.01 28.217 2314.54 28.2576 2315.08 28.2597C2317.37 28.2573 2319.61 27.6101 2321.55 26.3924C2323.48 25.1747 2325.03 23.4359 2326.03 21.3756L2353.65 33.4418L2362.28 190.94ZM1946.19 35.4173C1947.02 36.9037 1948.14 38.2076 1949.49 39.2517C1950.84 40.2958 1952.38 41.059 1954.03 41.496L1939.19 106.963C1937.29 106.611 1935.32 106.894 1933.59 107.769C1932.45 108.346 1931.44 109.16 1930.64 110.156C1929.84 111.151 1929.26 112.306 1928.94 113.543L1914.53 110.504L1873.26 73.1202L1927.22 45.2192L1946.19 35.4173ZM1820.63 25.5091C1821.61 24.3551 1822.41 23.0651 1823.02 21.6795L1823.88 28.4572L1820.63 25.5091ZM1893.13 243.186L1941.91 374.075C1941.13 374.414 1940.39 374.859 1939.73 375.397L1873.41 299.049L1893.13 243.186ZM1938.98 376.035C1937.31 377.6 1936.24 379.694 1935.94 381.962L1846.5 375.062L1872.95 300.113L1938.98 376.035ZM2281.3 824.944L2288.09 727.29L2337.53 795.964L2287.17 828.47C2286.49 827.509 2285.61 826.701 2284.6 826.094C2283.59 825.487 2282.47 825.096 2281.3 824.944ZM2598.18 832.74C2596.16 831.491 2593.83 830.828 2591.45 830.825H2590.84L2580.93 715.072L2661.37 702.201C2661.54 703.007 2661.81 703.789 2662.18 704.526C2662.93 706.033 2664.07 707.312 2665.48 708.228C2666.9 709.145 2668.53 709.666 2670.21 709.738V723.613L2598.18 832.74ZM2548.03 250.86L2550.75 246.468L2574.08 252L2552.64 257.228C2551.91 254.618 2550.29 252.345 2548.06 250.799L2548.03 250.86ZM2547.2 250.328C2545.61 249.435 2543.83 248.93 2542 248.853C2540.18 248.776 2538.36 249.13 2536.7 249.887C2535.04 250.643 2533.58 251.781 2532.44 253.207C2531.3 254.633 2530.52 256.307 2530.15 258.094L2405.31 237.654L2398.41 236.53L2371.05 208.872C2372.21 207.619 2373.06 206.109 2373.52 204.465L2549.77 246.149L2547.2 250.328ZM2373.77 203.599C2374.15 201.694 2374 199.724 2373.33 197.9L2600.55 148.891C2601.3 151.811 2603.08 154.36 2605.57 156.064L2550.28 245.405L2373.77 203.599ZM2338.46 -74.5001C2339.34 -72.7377 2340.71 -71.2604 2342.4 -70.2367C2344.09 -69.213 2346.03 -68.684 2348 -68.7102L2353.55 32.2108L2326.38 20.3574C2326.91 18.95 2327.19 17.4569 2327.2 15.9504C2327.2 12.7261 2325.91 9.63381 2323.63 7.35387C2321.35 5.07393 2318.26 3.79306 2315.04 3.79306C2314.7 3.79306 2314.37 3.79306 2314.04 3.79306L2305.34 -65.99L2337.92 -75.8222C2338.07 -75.37 2338.25 -74.9282 2338.46 -74.5001ZM2169.94 -23.7281C2170.97 -21.6526 2172.69 -19.9981 2174.81 -19.0453C2176.92 -18.0925 2179.3 -17.9 2181.54 -18.5004L2192.17 15.3729L2013.13 15.1602L2169.32 -25.3237C2169.49 -24.7771 2169.69 -24.2438 2169.94 -23.7281ZM2002.78 16.1327L1969.34 25.4027C1969.15 24.7429 1968.9 24.102 1968.58 23.4879C1967.44 21.1935 1965.63 19.2977 1963.39 18.0475L1964.39 16.0872L2002.78 16.1327ZM1962.64 17.6524C1960.54 16.6586 1958.21 16.2692 1955.9 16.5279L1955.82 16.072H1963.42L1962.64 17.6524ZM1955.04 16.6342C1953.83 16.8506 1952.64 17.2395 1951.53 17.7892C1951.18 17.9716 1950.87 18.1539 1950.55 18.3515L1949.03 16.0568H1954.97L1955.04 16.6342ZM1949.85 18.8378C1947.42 20.5741 1945.68 23.1085 1944.93 25.9977C1944.19 28.8869 1944.48 31.9469 1945.76 34.6423L1911.17 52.5439L1872.51 72.5427L1824.79 29.3386L1823.61 19.9167C1823.99 18.6176 1824.21 17.2742 1824.25 15.92L1947.96 16.072L1949.85 18.8378ZM1834.22 85.2319C1833.45 85.0796 1832.67 85.0336 1831.89 85.0952L1830.72 75.8556L1834.22 85.2319ZM1832.61 102.343C1833.91 102.331 1835.19 102.024 1836.36 101.445C1837.53 100.866 1838.55 100.03 1839.35 99.0001L1892.63 241.925L1872.74 298.289L1826.68 245.253L1832.61 102.343ZM1846.28 376.005L1935.46 382.874L1826.86 449.739C1825.61 447.845 1823.81 446.381 1821.69 445.545L1841.89 388.36L1846.28 376.005ZM1828.61 457.808L2063.82 486.089L2090.34 489.281C2090.23 490.58 2090.36 491.887 2090.72 493.141L1891.51 517.789C1891.18 516.125 1890.26 514.635 1888.92 513.589C1887.58 512.543 1885.92 512.011 1884.22 512.089C1882.52 512.168 1880.91 512.851 1879.68 514.016C1878.44 515.18 1877.67 516.749 1877.49 518.437C1877.31 520.125 1877.75 521.821 1878.71 523.217C1879.68 524.612 1881.11 525.616 1882.75 526.045C1884.4 526.474 1886.14 526.3 1887.66 525.555C1889.19 524.81 1890.4 523.543 1891.07 521.984L2043.31 575.917L1996.32 646.186C1994.76 645.218 1992.98 644.668 1991.15 644.591C1989.32 644.514 1987.5 644.911 1985.86 645.745C1985.19 646.088 1984.56 646.495 1983.96 646.961L1825.19 464.236C1827 462.533 1828.18 460.277 1828.56 457.823L1828.61 457.808ZM2224.51 576.342L2224.71 594.472L2225.09 629.971C2223.23 630.074 2221.43 630.699 2219.91 631.774C2218.38 632.848 2217.19 634.33 2216.47 636.05L2134.24 606.948L2224.51 576.342ZM2225.68 649.924C2227.61 649.927 2229.5 649.367 2231.12 648.314L2276.86 711.76L2287.27 726.196L2280.42 824.883C2279.03 824.853 2277.65 825.161 2276.41 825.78C2275.11 826.435 2274 827.414 2273.19 828.622L2189.04 776.862L2223.55 649.696C2224.24 649.846 2224.94 649.923 2225.64 649.924H2225.68ZM2352.73 801.465C2349.78 801.462 2346.91 802.34 2344.47 803.988L2338.81 796.116L2364.81 779.4L2415.76 746.514L2417.49 747.487L2361.89 804.748C2359.3 802.642 2356.07 801.484 2352.73 801.465ZM2416.69 745.846L2418.47 744.706C2418.7 745.028 2418.95 745.337 2419.21 745.633L2418.19 746.682L2416.69 745.846ZM2419.83 746.241C2420.42 746.76 2421.07 747.2 2421.76 747.548L2421.37 748.444L2418.98 747.107L2419.83 746.241ZM2422.55 747.897C2424.04 748.471 2425.66 748.644 2427.24 748.399L2428.01 752.152L2422.13 748.87L2422.55 747.897ZM2428.07 748.216C2428.7 748.057 2429.3 747.833 2429.88 747.548C2430.41 747.283 2430.92 746.973 2431.4 746.621L2443.24 760.602L2429.06 752.684L2428.07 748.216ZM2447.11 763.915L2579.87 837.892C2579.25 839.113 2578.83 840.427 2578.64 841.782L2505.98 833.424L2447.11 763.915ZM2668.3 690.971C2667.62 691.136 2666.95 691.375 2666.32 691.685C2665.6 692.052 2664.93 692.511 2664.33 693.053L2570.65 595.323L2564.57 525.038L2617.44 471.941C2618.45 472.868 2619.66 473.556 2620.97 473.956C2622.29 474.355 2623.68 474.456 2625.03 474.251L2659.9 649.241L2668.3 690.971ZM2612.74 133.36L2611.69 71.4334L2722.76 13.0934L2620 135.928C2617.93 134.349 2615.4 133.476 2612.79 133.436L2612.74 133.36ZM2601.34 140.335L2535.34 111.537L2565.9 95.4897L2603.76 136.931C2602.78 137.952 2601.98 139.128 2601.39 140.411L2601.34 140.335ZM2305.24 -66.7802V-66.9018L2310.45 -68.4214L2305.24 -66.7802ZM2313.06 4.00582C2312.7 4.00582 2312.35 4.14259 2312 4.23377L2291.94 -61.8717L2304.37 -65.6252L2313.06 4.00582ZM2302.94 15.5097L2214.51 15.4033L2185.64 -20.6735C2187.02 -21.9148 2188.03 -23.5103 2188.57 -25.2866C2189.1 -27.0629 2189.14 -28.9521 2188.68 -30.7489L2237.76 -45.5505L2305.27 8.79277C2303.84 10.7501 2303.03 13.0891 2302.94 15.5097ZM2169.1 -26.1595L2009.78 15.1602H2009.48L2168.85 -29.0773C2168.79 -28.0973 2168.88 -27.1141 2169.1 -26.1595ZM1808.69 31.0255C1810.39 31.0275 1812.08 30.7502 1813.69 30.2049L1829.38 72.3148L1831.01 85.2168C1828.8 85.6183 1826.83 86.8672 1825.52 88.6978C1824.22 90.5284 1823.68 92.7961 1824.02 95.0186L1723.11 115.534C1722.8 113.944 1722.03 112.478 1720.91 111.309L1798.41 27.1959C1801.25 29.6862 1804.91 31.0486 1808.69 31.0255ZM1820.84 445.347C1820.05 445.105 1819.24 444.952 1818.41 444.891L1821.34 374.105L1845.34 375.959L1820.84 445.347ZM1761.71 792.469L1866.27 657.842C1867.83 658.957 1869.65 659.641 1871.56 659.825C1873.47 660.008 1875.39 659.686 1877.13 658.889C1878.88 658.092 1880.38 656.849 1881.49 655.285C1882.6 653.722 1883.28 651.894 1883.45 649.985L1979.95 655.198C1979.92 656.927 1980.31 658.638 1981.09 660.182C1981.09 660.334 1981.26 660.456 1981.34 660.608L1763.57 794.566C1763.04 793.788 1762.42 793.083 1761.71 792.469ZM2000.07 660.608C2000.77 659.353 2001.21 657.972 2001.37 656.545C2001.53 655.117 2001.41 653.673 2001 652.295L2132.68 607.541L2216.09 637.068C2215.81 637.994 2215.67 638.957 2215.67 639.925C2215.67 642.029 2216.33 644.081 2217.56 645.786C2218.8 647.491 2220.54 648.764 2222.54 649.423L2188.12 776.315L2160.49 759.31L2000.07 660.608ZM2445.03 762.729L2446.38 764.325L2504.78 833.287L2444.24 826.327L2429.3 753.961L2445.03 762.729ZM2506.97 834.533L2578.56 842.77C2578.56 843.104 2578.56 843.423 2578.56 843.758C2578.56 846.508 2579.44 849.187 2581.05 851.41C2582.67 853.633 2584.96 855.285 2587.58 856.128L2572.29 911.596L2506.97 834.533ZM2599 833.226L2670.26 725.33L2670.59 822.847L2603.85 840.004C2603.03 837.272 2601.32 834.89 2599 833.226ZM2671.08 709.647C2672.4 709.585 2673.69 709.249 2674.86 708.659C2675 708.593 2675.13 708.516 2675.26 708.432L2677.68 712.307L2671.11 722.215L2671.08 709.647ZM2619.62 456.805C2618.88 457.177 2618.19 457.647 2617.57 458.203L2553.4 393.253L2543 271.984C2544.85 271.761 2546.62 271.082 2548.14 270.008L2650.11 404.726L2627.13 456.577C2625.93 456.089 2624.64 455.863 2623.35 455.913C2622.05 455.962 2620.78 456.287 2619.62 456.866V456.805ZM2744.8 0.63216L2726.56 10.2516L2743.49 -9.99029L2745.65 -8.33385C2744.74 -7.04467 2744.18 -5.53801 2744.03 -3.96455C2743.88 -2.3911 2744.14 -0.806024 2744.8 0.63216ZM2724.16 11.4674L2611.71 70.552L2608.67 -113.829L2742.75 -10.5981L2724.16 11.4674ZM2611.71 133.451C2609.03 133.604 2606.48 134.623 2604.43 136.353L2566.74 95.0794L2610.66 72.0109L2611.71 133.451ZM2534.2 111.173L2417.19 60.1423L2451.5 -29.7003L2565.31 94.9122L2534.2 111.173ZM2416.48 59.8079L2354.17 32.6667L2348.59 -68.695C2349.88 -68.8206 2351.14 -69.1811 2352.3 -69.7587C2354.79 -71.0184 2356.68 -73.2139 2357.55 -75.8635C2358.42 -78.5131 2358.21 -81.4003 2356.95 -83.8916C2356.82 -84.153 2356.68 -84.4067 2356.53 -84.6515L2384.15 -103.191L2450.9 -30.4298L2416.48 59.8079ZM2356.13 -85.3657C2355.95 -85.6088 2355.75 -85.852 2355.54 -86.0951L2379.23 -108.677L2383.65 -103.83L2356.13 -85.3657ZM2354.96 -86.7182C2353.65 -87.9825 2352.03 -88.8878 2350.26 -89.3472L2359.28 -130.728L2378.83 -109.316L2354.96 -86.7182ZM2337.45 -76.7644L2304.93 -67.7376L2300.63 -102.325L2338.11 -83.4965C2337.21 -81.3665 2337.04 -78.9987 2337.64 -76.7644H2337.45ZM2304.02 -67.4792L2291.33 -63.8624L2275.89 -114.802L2299.75 -102.811L2304.02 -67.4792ZM2304.13 -66.6282V-66.4914L2291.56 -62.6923L2291.44 -63.1178L2304.13 -66.6282ZM2188.45 -31.5695C2188.31 -31.9924 2188.14 -32.4039 2187.93 -32.8005C2187.7 -33.2622 2187.43 -33.7043 2187.13 -34.1226L2235.35 -47.5108L2236.97 -46.2039L2188.45 -31.5695ZM1948.34 15.0842L1914.91 -35.0648L1945.61 -49.8359L1954.73 15.1298L1948.34 15.0842ZM1947.32 15.0842L1824.23 14.9322C1824.18 12.9258 1823.73 10.9492 1822.93 9.11189L1914.11 -34.7456L1947.32 15.0842ZM1781.48 193.204L1790.33 176.123L1828.99 101.568C1829.87 101.975 1830.82 102.227 1831.78 102.313L1825.89 244.341L1784.04 196.137L1781.48 193.204ZM1826.65 246.712L1872.39 299.368L1845.69 375.002L1821.38 373.133L1826.62 247.091L1826.65 246.712ZM1822.55 466.091C1823.26 465.732 1823.93 465.299 1824.55 464.799L1932.22 588.697L1983.33 647.508C1981.42 649.309 1980.24 651.739 1980 654.347L1963.18 653.435L1883.5 649.119C1883.53 647.363 1883.14 645.626 1882.34 644.059C1881.24 641.855 1879.42 640.091 1877.19 639.056C1874.95 638.021 1872.43 637.775 1870.03 638.36L1821.01 466.638C1821.53 466.493 1822.05 466.31 1822.55 466.091ZM2275.53 840.642C2277.1 841.68 2278.98 842.166 2280.86 842.026C2282.75 841.887 2284.53 841.128 2285.93 839.869C2287.34 838.61 2288.29 836.921 2288.64 835.065C2288.99 833.21 2288.71 831.291 2287.85 829.61L2287.62 829.184L2338.02 796.663L2343.73 804.596C2342.18 805.795 2340.88 807.292 2339.92 808.997C2338.95 810.702 2338.33 812.583 2338.1 814.529C2337.87 816.475 2338.03 818.448 2338.57 820.333C2339.1 822.217 2340.01 823.976 2341.24 825.507L2197.45 948.463L2275.53 840.642ZM2444.45 827.345L2505.73 834.397L2571.95 912.599L2516.09 1115.17L2514.13 1116.25C2513.01 1114.39 2511.36 1112.91 2509.38 1112C2507.41 1111.09 2505.21 1110.8 2503.07 1111.16L2489.81 1047.03L2444.45 827.345ZM2515.98 1119.32L2516.99 1115.66L2538.37 1103.85L2641.71 1046.85L2573.91 1108.27L2515.98 1119.32ZM2661.01 1030.66C2661.12 1032.03 2661.5 1033.36 2662.11 1034.58L2648.19 1042.27L2661.01 1030.66ZM2666.89 1020.02C2666.25 1020.35 2665.65 1020.74 2665.09 1021.18L2573.08 912.507L2588.56 856.386C2589.53 856.623 2590.53 856.746 2591.53 856.751C2594.46 856.744 2597.31 855.74 2599.6 853.904C2601.89 852.068 2603.49 849.509 2604.14 846.645L2670.79 859.273L2671.35 1018.96C2669.8 1019.01 2668.28 1019.39 2666.89 1020.08V1020.02ZM2604.25 845.627C2604.34 844.988 2604.39 844.343 2604.4 843.697C2604.39 842.773 2604.3 841.851 2604.11 840.946L2670.59 823.85L2670.72 858.21L2604.25 845.627ZM2671.11 724.054L2678.24 713.264L2736.11 805.964L2671.45 822.589L2671.11 724.054ZM2675.97 708.036C2677.88 706.715 2679.23 704.742 2679.77 702.49L2683.66 703.265L2678.18 711.562L2675.97 708.036ZM2679.94 701.669C2680.25 699.729 2679.94 697.742 2679.06 695.985C2678.89 695.666 2678.72 695.362 2678.53 695.058L2698.63 680.606L2684.17 702.505L2679.94 701.669ZM2669.17 690.849L2626.01 474.099C2626.67 473.934 2627.31 473.694 2627.92 473.385C2628.3 473.196 2628.66 472.983 2629 472.747L2694.99 560.325C2693.82 561.303 2692.94 562.581 2692.45 564.02C2691.96 565.46 2691.87 567.007 2692.19 568.494C2692.52 569.981 2693.24 571.351 2694.29 572.456C2695.33 573.56 2696.66 574.358 2698.13 574.762L2672.3 690.864C2671.27 690.692 2670.21 690.692 2669.18 690.864L2669.17 690.849ZM2696.52 559.307C2696.2 559.474 2695.9 559.656 2695.59 559.854L2670.81 526.968L2629.61 472.26C2630.97 471.129 2631.97 469.635 2632.51 467.953C2633.05 466.271 2633.1 464.471 2632.65 462.762L2682.2 447.14L2743.34 527.91L2706.2 560.902C2704.97 559.663 2703.38 558.843 2701.65 558.559C2699.93 558.276 2698.16 558.542 2696.6 559.322L2696.52 559.307ZM2632.45 461.942C2632.33 461.607 2632.19 461.273 2632.04 460.954C2631.15 459.172 2629.7 457.728 2627.92 456.836L2650.72 405.501V405.425L2681.75 446.456L2632.45 461.942ZM2548.87 269.324C2550.41 268.039 2551.6 266.374 2552.3 264.492L2691.63 310.841L2650.5 403.541L2548.87 269.324ZM2552.62 263.565C2552.92 262.521 2553.07 261.442 2553.06 260.358C2553.06 259.604 2552.99 258.851 2552.85 258.109L2576.18 252.41L2694.89 280.555C2694.47 282.697 2694.77 284.92 2695.73 286.878C2696.7 288.837 2698.28 290.422 2700.24 291.39L2692.08 309.975L2552.62 263.565ZM2700.2 273.503C2698.96 274.127 2697.87 275.002 2696.99 276.072C2696.11 277.143 2695.46 278.384 2695.09 279.719L2578.08 251.97L2715.11 218.537L2705.99 272.516C2704.02 272.264 2702.03 272.608 2700.26 273.503H2700.2ZM2575.89 251.468L2551.19 245.617L2606.36 156.55C2607.87 157.409 2609.54 157.938 2611.27 158.105C2613 158.271 2614.75 158.07 2616.39 157.514C2618.04 156.959 2619.55 156.062 2620.82 154.882C2622.1 153.703 2623.11 152.267 2623.79 150.669L2720.23 187.84L2715.23 217.473L2575.89 251.468ZM2624.14 149.742C2624.96 147.379 2625.02 144.821 2624.34 142.417L2733.96 106.583L2720.49 186.882L2624.14 149.742ZM2746.08 -9.0481L2744.02 -10.6741L2745.82 -12.8321L2747.54 -10.355C2747.02 -9.96144 2746.55 -9.51301 2746.14 -9.0177L2746.08 -9.0481ZM2311.04 4.52251C2309.06 5.22304 2307.29 6.42746 2305.91 8.01775L2238.92 -45.8848L2291.01 -61.5829L2311.04 4.52251ZM2013.84 -82.6151L1963.97 15.1602H1955.7L1946.49 -50.1854L1987.16 -69.7435L2013.84 -82.6151ZM1812.5 0.252263L1817.42 -23.105L1821.07 5.76864C1818.9 3.01017 1815.86 1.06642 1812.44 0.252263H1812.5ZM1714.88 125.731C1716.76 125.733 1718.59 125.107 1720.07 123.953L1780.45 193.447L1751.58 249.052C1750.05 248.319 1748.39 247.897 1746.7 247.812C1745.01 247.727 1743.32 247.98 1741.73 248.556C1740.14 249.132 1738.68 250.019 1737.43 251.166C1736.19 252.313 1735.18 253.697 1734.48 255.237L1634.18 212.838L1709.71 123.999C1711.18 125.118 1712.97 125.727 1714.82 125.731H1714.88ZM1751.79 271.984C1754.82 270.456 1757.13 267.786 1758.2 264.561C1759.27 261.336 1759.01 257.818 1757.49 254.781C1756.35 252.501 1754.56 250.616 1752.34 249.371L1781 194.086L1788.46 202.687L1825.83 245.709L1820.54 372.996L1786.68 370.397L1750.85 272.394C1751.17 272.333 1751.49 272.196 1751.79 271.984ZM1994.43 665.395C1994.8 665.257 1995.16 665.1 1995.51 664.924C1997.17 664.085 1998.58 662.834 1999.62 661.291L2187.89 777.12L2126.68 1002.71C2126.1 1002.59 2125.51 1002.53 2124.91 1002.53C2122.98 1002.53 2121.11 1003.17 2119.59 1004.37C2118.07 1005.56 2117 1007.24 2116.56 1009.12C2116.11 1010.99 2116.32 1012.97 2117.14 1014.72C2117.95 1016.47 2119.34 1017.89 2121.07 1018.75C2122.8 1019.61 2124.77 1019.86 2126.66 1019.46C2128.55 1019.06 2130.24 1018.03 2131.48 1016.54C2132.71 1015.05 2133.4 1013.19 2133.44 1011.26C2133.48 1009.33 2132.86 1007.44 2131.69 1005.91L2192.23 954.146L2124.78 1047.3C2123.89 1046.72 2122.89 1046.33 2121.84 1046.16C2120.79 1045.99 2119.72 1046.05 2118.7 1046.31L2035.85 792.53L1994.43 665.395ZM2125.7 1047.88L2125.52 1047.73L2195 951.791L2336.51 830.795L2264.81 904.635L2125.7 1047.88ZM2362.59 805.158L2418.31 747.776L2421 749.295L2389.73 820.005L2367.51 817.543C2367.51 817.133 2367.51 816.738 2367.51 816.328C2367.53 814.233 2367.1 812.158 2366.25 810.243C2365.4 808.328 2364.15 806.615 2362.59 805.219V805.158ZM2421.76 749.706L2428.31 753.353L2432.3 772.637L2443.36 826.16L2390.63 820.081L2421.76 749.706ZM2734.16 105.519L2624.05 141.505C2623.35 139.653 2622.23 137.992 2620.76 136.657L2725.04 11.9537L2745.19 1.31602C2745.82 2.38888 2746.66 3.31986 2747.67 4.04979C2748.67 4.77972 2749.82 5.29264 2751.03 5.55589L2747.55 26.117L2734.16 105.519ZM2290.63 -62.8443L2290.77 -62.4187L2238.11 -46.5382L2236.59 -47.83L2290.63 -62.8443ZM1913.65 -35.5815L1822.58 8.2153C1822.42 7.91137 1822.24 7.62263 1822.07 7.34909L1817.9 -25.6732L1842.48 -142.49L1913.65 -35.5815ZM1587.79 -152.596C1589.38 -151.357 1591.34 -150.684 1593.36 -150.681C1594.66 -150.673 1595.94 -150.94 1597.12 -151.464C1598.3 -151.988 1599.36 -152.757 1600.22 -153.72L1796.35 6.04218C1794.28 8.75427 1793.16 12.0692 1793.15 15.4793C1793.15 15.6617 1793.15 15.8288 1793.15 15.996L1626.75 26.7248L1437.43 38.8821C1437.1 35.6013 1435.57 32.5585 1433.13 30.3416L1587.79 -152.596ZM1189 97.7844C1188.64 96.7426 1187.97 95.8384 1187.07 95.1982C1186.17 94.558 1185.1 94.2136 1184 94.2132C1183.43 94.2164 1182.87 94.314 1182.34 94.5019L1103.32 -87.2349C1104.43 -87.8378 1105.34 -88.7651 1105.92 -89.8943L1411.64 35.5693C1411.11 37.0312 1410.83 38.573 1410.82 40.1283C1410.82 41.0419 1410.91 41.9534 1411.1 42.8485L1189 97.7844ZM1437.2 43.0764C1437.42 42.109 1437.54 41.1203 1437.54 40.1283C1437.55 40.0068 1437.55 39.885 1437.54 39.7635L1793.26 16.847C1793.6 20.4951 1795.21 23.9069 1797.82 26.4817L1720.32 110.565C1719.25 109.689 1717.98 109.086 1716.62 108.81C1715.27 108.534 1713.87 108.592 1712.54 108.98C1711.21 109.367 1710 110.073 1709.01 111.035C1708.01 111.997 1707.27 113.186 1706.84 114.501L1437.2 43.0764ZM1514.49 162.188C1514.89 161.063 1515.01 159.857 1514.83 158.677L1706.7 119.683C1707.13 121.062 1707.9 122.308 1708.95 123.3L1633.23 212.367L1514.49 162.188ZM1522.67 350.064C1522.67 349.299 1522.52 348.542 1522.23 347.835C1521.94 347.128 1521.51 346.486 1520.97 345.946L1633.59 213.461L1734.15 256.012C1733.28 258.268 1733.06 260.724 1733.54 263.096C1734.01 265.467 1735.14 267.656 1736.81 269.407C1738.48 271.159 1740.61 272.4 1742.95 272.988C1745.3 273.576 1747.76 273.486 1750.06 272.728L1785.75 370.367L1522.67 350.064ZM1787.09 371.339L1820.52 373.923L1817.59 444.724C1816.41 444.725 1815.24 444.909 1814.11 445.271L1787.09 371.339ZM1806.7 458.538C1806.89 459.379 1807.18 460.194 1807.56 460.969C1808.7 463.237 1810.57 465.051 1812.87 466.114C1815.18 467.178 1817.77 467.426 1820.24 466.82L1868.24 635.184L1869.21 638.588C1868.69 638.751 1868.18 638.955 1867.69 639.196C1865.42 640.353 1863.62 642.266 1862.6 644.606L1704.44 583.029L1533.2 516.376C1533.53 515.284 1533.62 514.133 1533.46 513.003L1806.7 458.538ZM1214.15 733.84C1214.57 732.318 1214.41 730.694 1213.71 729.281C1213.71 729.144 1213.55 729.038 1213.48 728.901L1520.06 518.716C1520.91 519.814 1522.05 520.655 1523.35 521.148L1433.69 804.748C1432.13 804.348 1430.48 804.521 1429.03 805.234C1427.59 805.977 1426.47 807.204 1425.85 808.699L1214.15 733.84ZM1438.84 810.614C1438.77 809.779 1438.54 808.965 1438.18 808.213C1437.42 806.712 1436.13 805.547 1434.56 804.945L1518.43 539.445L1524.17 521.209C1525.93 521.68 1527.8 521.485 1529.42 520.662C1529.76 520.486 1530.09 520.283 1530.4 520.054L1646.32 664.908L1748.37 792.439C1747.28 793.388 1746.41 794.555 1745.81 795.864C1745.2 797.173 1744.88 798.595 1744.86 800.037L1438.84 810.614ZM1765.3 800.918C1765.41 799.117 1765.04 797.319 1764.24 795.706C1764.17 795.569 1764.09 795.437 1764.01 795.311L1981.78 661.352C1982.89 663.01 1984.44 664.326 1986.26 665.152C1988.07 665.979 1990.08 666.284 1992.06 666.033L2017.61 816.905C2016.67 817.102 2015.75 817.419 2014.89 817.847C2013.27 818.653 2011.88 819.839 2010.82 821.302C2009.76 822.766 2009.07 824.464 2008.81 826.251L1765.3 800.918ZM2024.89 837.801C2027.25 836.619 2029.11 834.642 2030.14 832.218C2031.18 829.795 2031.33 827.082 2030.56 824.561C2029.78 822.041 2028.14 819.875 2025.93 818.449C2023.71 817.022 2021.06 816.427 2018.45 816.768L1992.9 665.881L1993.63 665.714L2004.27 698.538L2117.68 1045.99L2024.74 837.801H2024.89ZM2128.23 1052.45C2128.03 1050.97 2127.35 1049.59 2126.3 1048.53L2150.47 1023.63L2341.95 826.388C2343.85 828.417 2346.28 829.869 2348.97 830.577C2351.66 831.286 2354.49 831.221 2357.14 830.39C2359.79 829.56 2362.15 827.998 2363.96 825.884C2365.76 823.77 2366.93 821.189 2367.33 818.44L2389.26 820.963L2298.22 1026.82C2296.86 1026.29 2295.39 1026.12 2293.95 1026.31C2292.51 1026.5 2291.14 1027.05 2289.97 1027.9C2288.79 1028.76 2287.85 1029.9 2287.23 1031.22C2286.61 1032.53 2286.34 1033.98 2286.42 1035.43L2128.23 1052.45ZM2303.32 1037.89C2304.02 1035.91 2303.98 1033.73 2303.19 1031.77C2302.41 1029.81 2300.93 1028.21 2299.05 1027.26L2369.66 867.692L2390.22 821.206L2443.57 827.284L2502.23 1111.46C2501.45 1111.65 2500.69 1111.93 2499.97 1112.3C2497.76 1113.39 2496.01 1115.22 2495 1117.46L2303.32 1037.89ZM2513.45 1128.53C2514.79 1126.77 2515.57 1124.65 2515.68 1122.45L2557.26 1123.25L2505.97 1169.73C2505.03 1168.79 2503.88 1168.09 2502.63 1167.66L2513.45 1128.53ZM2716.97 1126.42C2716.98 1127.27 2717.11 1128.13 2717.34 1128.95L2508.25 1173.72C2507.93 1172.56 2507.38 1171.48 2506.62 1170.55L2558.7 1123.44L2716.97 1126.42Z" fill="url(#paint1_linear_58_2048)"/>
</g>
</g>
<defs>
<linearGradient id="paint0_linear_58_2048" x1="273.081" y1="-223" x2="273.081" y2="1285.86" gradientUnits="userSpaceOnUse">
<stop stop-color="white" stop-opacity="0"/>
<stop offset="0.5" stop-color="#FAFCFF" stop-opacity="0.96"/>
<stop offset="1" stop-color="#FAFCFF" stop-opacity="0"/>
</linearGradient>
<linearGradient id="paint1_linear_58_2048" x1="1924.04" y1="-156.562" x2="1924.04" y2="1352.3" gradientUnits="userSpaceOnUse">
<stop stop-color="white" stop-opacity="0"/>
<stop offset="0.5" stop-color="#FAFCFF" stop-opacity="0.96"/>
<stop offset="1" stop-color="#FAFCFF" stop-opacity="0"/>
</linearGradient>
<clipPath id="clip0_58_2048">
<rect width="1920" height="1080" fill="white"/>
</clipPath>
</defs>
</svg>
